<svg width="120" height="58" viewBox="0 0 120 58" fill="none" xmlns="http://www.w3.org/2000/svg">
<g clip-path="url(#clip0_7_782)">
<path d="M115.949 8.67584C114.464 8.67584 113.254 9.88429 113.254 11.3713C113.254 12.8583 114.462 14.0682 115.949 14.0682C117.438 14.0682 118.646 12.8583 118.646 11.3713C118.646 9.88573 117.438 8.67584 115.949 8.67584ZM115.276 7.32739C117.882 7.32739 119.994 9.43863 119.994 12.0456C119.994 14.6525 117.88 16.7651 115.276 16.7651C112.669 16.7651 110.557 14.651 110.557 12.0456C110.557 9.43863 112.671 7.32739 115.276 7.32739ZM106.513 50.4691V7.32739H102.25L94.3798 14.2396V19.1677L102.25 12.1355V50.4691H106.513ZM85.4576 47.2894C88.6143 44.2297 88.9859 40.2087 88.9859 35.9491C88.9859 31.9294 88.553 27.6084 85.3333 24.4887C83.6008 22.8089 80.9993 21.7889 77.7196 21.7889C74.253 21.7889 71.5275 22.8688 69.7947 24.7287V11.1685H88.0587V7.32739H65.7707V29.7682H69.7947C70.6619 27.2484 73.2617 25.5686 77.0997 25.5686C83.4764 25.5686 84.5277 30.7281 84.5277 35.9491C84.5277 39.0088 84.4047 42.4299 82.1136 44.6483C80.8137 45.9096 78.8339 46.6295 76.6671 46.6295C72.0245 46.6295 69.7334 44.2297 69.1761 39.9701H64.7195C64.9651 43.0298 65.895 45.4896 67.8135 47.4094C69.7334 49.2692 72.8274 50.4691 76.6671 50.4691C80.5667 50.4691 83.4148 49.2692 85.4576 47.2894ZM51.2364 50.4691H57.9788V43.7284H51.2364V50.4705V50.4691ZM43.1471 44.0827L24.8317 44.0811V36.4817L39.9874 7.32739H10.7901C15.8754 8.95581 19.5436 13.1269 19.5436 19.0878C19.5436 23.7773 16.7724 26.6756 14.5084 28.2184C16.9624 29.8225 20.1721 32.7222 20.1721 38.0889C20.1721 44.611 16.401 48.8423 11.0744 50.4691H43.1471V44.0827ZM6.07195 43.7284C9.47594 43.7284 12.1386 41.08 12.1386 37.6916C12.1386 34.3063 9.47594 31.5952 6.07195 31.5952C2.66798 31.5952 0.00537109 34.3049 0.00537109 37.6916C0.00537109 41.08 2.66798 43.7284 6.07195 43.7284ZM6.77762 24.8544C9.88447 24.8544 12.1386 22.5774 12.1386 19.462C12.1386 16.4051 9.88447 14.0682 6.77762 14.0682C3.6693 14.0682 1.35382 16.4066 1.35382 19.462C1.35382 22.576 3.6679 24.8544 6.77762 24.8544ZM48.6496 7.32739H53.9335V36.9877H50.7094V28.6398H42.9528V36.9877H33.711L48.6496 7.32739Z" fill="#20203C"/>
</g>
<defs>
<clipPath id="clip0_7_782">
<rect width="119.989" height="57.3281" fill="white" transform="translate(0.00537109 0.328125)"/>
</clipPath>
</defs>
</svg>
