<svg width="53" height="53" viewBox="0 0 53 53" fill="none" xmlns="http://www.w3.org/2000/svg">
<path d="M52.2985 35.9459V3.43944C52.2985 1.9839 51.0856 0.770996 49.63 0.770996H3.21532C1.75978 0.770996 0.546875 1.9839 0.546875 3.43944V40.3936C0.546875 41.8491 1.75978 43.062 3.21532 43.062H20.3582L17.0427 47.3476H16.6384C14.2127 47.3476 12.2721 49.2883 12.2721 51.714C12.2721 52.1991 12.5956 52.5226 13.0807 52.5226H39.7651C40.2502 52.5226 40.5737 52.1991 40.5737 51.714C40.5737 49.2883 38.6331 47.3476 36.2073 47.3476H35.8031L32.4876 43.062H49.6305C51.086 43.062 52.2989 41.8491 52.2989 40.3936L52.2985 35.9459ZM3.21532 2.38826H49.63C50.1959 2.38826 50.6813 2.87371 50.6813 3.43954V35.1378H2.16424V3.43954C2.16424 2.87368 2.64968 2.38826 3.21551 2.38826H3.21532ZM38.8753 50.9053H14.0511C14.3746 49.7733 15.4259 48.9647 16.7195 48.9647H36.2878C37.4199 48.9647 38.4712 49.7733 38.8754 50.9053H38.8753ZM33.7807 47.3472H19.0643L22.3797 43.0616H30.4658L33.7807 47.3472ZM49.6294 41.4444H3.21465C2.6488 41.4444 2.16338 40.9593 2.16338 40.3931V36.6734H50.6804L50.6808 40.3931C50.6808 40.9593 50.1954 41.4444 49.6295 41.4444H49.6294Z" fill="#333333"/>
<path d="M28.7675 38.2549H24.0776C23.5926 38.2549 23.269 38.5784 23.269 39.0635C23.269 39.5485 23.5925 39.872 24.0776 39.872H28.7675C29.2526 39.872 29.5761 39.5485 29.5761 39.0635C29.5761 38.578 29.2526 38.2549 28.7675 38.2549Z" fill="#333333"/>
<path d="M7.98606 11.5706L8.55191 10.9236V29.0366C8.55191 29.5217 8.87541 29.8452 9.36049 29.8452H30.223L29.576 30.411C29.2525 30.7345 29.2525 31.2196 29.576 31.5431C29.8995 31.8666 30.3845 31.8666 30.708 31.5431L32.8106 29.5217C32.9722 29.3601 33.0533 29.1174 33.0533 28.9558C33.0533 28.7131 32.9725 28.5515 32.8106 28.39L30.708 26.3685C30.3845 26.045 29.8995 26.045 29.576 26.3685C29.2525 26.692 29.2525 27.1771 29.576 27.5006L30.223 28.0665H27.393V25.0745C27.393 24.5894 27.0695 24.2659 26.5844 24.2659C26.0993 24.2659 25.7758 24.5894 25.7758 25.0745V28.0665L23.1882 28.0661V19.0095C23.1882 18.5244 22.8647 18.2009 22.3796 18.2009C21.8945 18.2009 21.571 18.5244 21.571 19.0095V28.3084H18.9834V22.2437C18.9834 21.7587 18.6599 21.4352 18.1748 21.4352C17.6898 21.4352 17.3663 21.7587 17.3663 22.2437V28.3084H14.7786L14.7783 16.7455C14.7783 16.2604 14.4548 15.9369 13.9697 15.9369C13.4846 15.9369 13.1611 16.2604 13.1611 16.7455V28.2274H10.0884V11.0036L10.6542 11.6506C10.9777 11.9741 11.4628 11.9741 11.7863 11.6506C12.1098 11.3271 12.1098 10.842 11.7863 10.5185L9.76489 8.41597C9.44139 8.09246 8.87554 8.09246 8.6328 8.41597L6.7729 10.4378C6.4494 10.7613 6.4494 11.2464 6.7729 11.5699C7.17756 11.893 7.66263 11.893 7.98609 11.5699L7.98606 11.5706Z" fill="#109CDD"/>
<path d="M37.9853 21.274C39.3601 23.2955 40.9773 25.398 41.3815 25.8024C42.4328 26.9345 44.2115 27.0153 45.3436 25.8832C46.4757 24.8319 46.4757 23.0532 45.4244 21.9211C45.0201 21.436 42.9987 19.7377 41.058 18.2821C42.9987 15.1286 42.5944 11.0853 40.0068 8.33642C38.4704 6.71925 36.449 5.82951 34.2656 5.74879C26.9881 5.58723 23.0257 14.32 28.1202 19.6571C30.7078 22.4067 34.6703 23.0537 37.9858 21.2747L37.9853 21.274ZM44.2927 24.751C43.8076 25.2361 43.0798 25.1553 42.5948 24.6702C42.1905 24.2659 40.5734 22.2445 39.3605 20.3039C39.684 20.0612 39.8455 19.8996 40.169 19.5761C42.029 20.9509 43.9696 22.6488 44.3739 23.0531C44.7778 23.5381 44.7778 24.266 44.2927 24.751L44.2927 24.751ZM34.266 7.36609C36.0451 7.44688 37.6623 8.17467 38.8751 9.38753C41.382 11.9752 41.382 16.18 38.6324 18.7677C35.9639 21.3553 31.7591 21.1934 29.2522 18.525C25.2093 14.3202 28.3629 7.2851 34.2659 7.3661L34.266 7.36609Z" fill="#333333"/>
</svg>
