<svg width="74" height="76" viewBox="0 0 74 76" fill="none" xmlns="http://www.w3.org/2000/svg">
<path d="M64.4667 49.9072L51.0703 57.907C51.1162 57.6254 51.139 57.332 51.139 57.0263C51.139 54.1273 48.9236 51.7543 46.1914 51.7543H38.6728C37.2495 51.7543 35.7915 51.2649 34.4597 50.36C32.5196 49.0388 29.742 48.2803 26.8374 48.2803C23.1873 48.2803 19.9038 49.4302 18.033 51.3505C16.7472 52.6716 14.9451 53.4054 12.9707 53.4054L8.78092 53.4059V52.1338C8.78092 51.6321 8.39037 51.2165 7.92002 51.2165H1.52593C1.05505 51.2165 0.665039 51.6326 0.665039 52.1338V74.7139C0.665039 75.2156 1.05558 75.6312 1.52593 75.6312H7.92002C8.3909 75.6312 8.78092 75.2151 8.78092 74.7139V73.6743C19.3763 70.3598 32.1753 73.3562 32.3701 73.3928C32.7834 73.4542 33.1967 73.515 33.61 73.5764C40.589 74.4813 47.9128 72.8178 54.2147 68.8793L69.5282 59.3139C70.7447 58.5553 71.6172 57.2714 71.9274 55.7908C72.2371 54.3109 71.939 52.7696 71.1352 51.5342C69.6196 49.2467 66.7616 48.5378 64.4658 49.9073L64.4667 49.9072ZM7.05897 73.7962H2.38672V53.0513H7.05897V73.7962ZM70.2395 55.4113C70.0329 56.4018 69.4706 57.2218 68.6552 57.7353L53.3417 67.3007C47.3609 71.0315 40.4278 72.6218 33.8152 71.7535C33.4247 71.7045 33.023 71.6437 32.6901 71.5947C32.3344 71.5091 26.9962 70.2493 20.3041 70.2493C16.6651 70.2493 12.6248 70.6165 8.77899 71.7541L8.77952 55.2404H12.9582C15.3802 55.2404 17.5956 54.323 19.2143 52.672C20.7527 51.0941 23.6684 50.1154 26.825 50.1154C29.4076 50.1154 31.8529 50.7636 33.5171 51.9011C35.1358 53.0021 36.9146 53.5894 38.6597 53.5894H46.1784C47.9577 53.5894 49.4042 55.1307 49.4042 57.0268C49.4042 57.9931 49.0253 58.8616 48.4287 59.4855C48.3943 59.5221 48.36 59.5469 48.3256 59.5835C47.7517 60.1218 47.0055 60.4518 46.179 60.4518L33.4944 60.4513C33.0235 60.4513 32.6335 60.8674 32.6335 61.3686C32.6335 61.8704 33.0241 62.286 33.4944 62.286H46.1906C47.4531 62.286 48.6126 61.7724 49.4852 60.9406L65.3033 51.4975C66.8185 50.5925 68.7125 51.0571 69.7114 52.5736C70.2504 53.4177 70.4454 54.4212 70.2388 55.4119L70.2395 55.4113Z" fill="#FFBC00"/>
<path d="M43.298 28.869C43.298 29.3758 42.9122 29.7863 42.4371 29.7863C41.9614 29.7863 41.5762 29.3758 41.5762 28.869C41.5762 28.3622 41.9614 27.9517 42.4371 27.9517C42.9122 27.9517 43.298 28.3622 43.298 28.869Z" fill="#FFBC00"/>
<path d="M47.6486 28.869C47.6486 29.3758 47.2633 29.7863 46.7877 29.7863C46.312 29.7863 45.9268 29.3758 45.9268 28.869C45.9268 28.3622 46.312 27.9517 46.7877 27.9517C47.2633 27.9517 47.6486 28.3622 47.6486 28.869Z" fill="#FFBC00"/>
<path d="M73.4892 23.8288C73.3513 23.4983 73.0411 23.2781 72.697 23.2781H69.9305C69.7355 22.0792 69.4945 20.9783 69.1959 19.9387C65.8094 8.33082 55.8798 0.527344 44.4689 0.527344C34.5392 0.527344 25.6432 6.44749 21.2355 15.9887C21.0288 16.4415 21.2011 16.9916 21.626 17.2118C22.0509 17.432 22.5672 17.2484 22.7739 16.7957C26.8949 7.8908 35.2058 2.36219 44.469 2.36219C55.1215 2.36219 64.3973 9.65246 67.5536 20.4905C67.8865 21.6528 68.1508 22.9126 68.3458 24.3312C68.4034 24.7839 68.7707 25.1139 69.1951 25.1139H70.7562L67.0029 29.5176L63.2608 25.1139H64.1677C64.4203 25.1139 64.6613 24.9917 64.8336 24.7839C65.0058 24.5761 65.0629 24.2946 65.0175 24.0254C64.7765 22.6553 64.3976 21.2609 63.8813 19.8666C60.6787 11.3407 53.068 5.82437 44.4698 5.82437C35.7801 5.82437 27.9049 11.6714 24.8743 20.3919C24.7137 20.8689 24.932 21.3949 25.3796 21.566C25.8272 21.7372 26.3208 21.5047 26.4814 21.0277C29.2596 13.0279 36.4797 7.65841 44.4575 7.65841C52.3434 7.65841 59.334 12.7103 62.2725 20.5384C62.6054 21.4434 62.8808 22.3608 63.0874 23.2662H61.3081C60.9635 23.2662 60.6538 23.474 60.5159 23.8164C60.378 24.1588 60.4356 24.5384 60.6649 24.807L66.3471 31.4981C66.5078 31.6941 66.7377 31.8039 66.9786 31.8039C67.2196 31.8039 67.4495 31.6941 67.6102 31.4981L73.304 24.807C73.5566 24.5389 73.6253 24.1594 73.4879 23.8294L73.4892 23.8288Z" fill="#FFBC00"/>
<path d="M42.3225 32.9673C41.9895 33.322 41.9895 33.9094 42.3225 34.2636C42.9307 34.9118 43.7457 35.2665 44.6071 35.2665C45.468 35.2665 46.2829 34.9118 46.8917 34.2636C47.2247 33.9088 47.2247 33.3215 46.8917 32.9673C46.5588 32.6125 46.0076 32.6125 45.6752 32.9673C45.1013 33.5788 44.1141 33.5788 43.5402 32.9673C43.2067 32.6001 42.6671 32.6001 42.3226 32.9673H42.3225Z" fill="#FFBC00"/>
<path d="M64.1216 32.294C63.674 32.1718 63.192 32.4776 63.0768 32.967C62.5488 35.2786 61.6304 37.4805 60.3562 39.4988C60.092 39.9149 60.1956 40.4893 60.5972 40.7709C60.7462 40.8807 60.9069 40.9297 61.0792 40.9297C61.3545 40.9297 61.6304 40.7827 61.791 40.5259C63.1799 38.3242 64.1786 35.9269 64.7527 33.4068C64.8679 32.9056 64.5809 32.4163 64.1217 32.294L64.1216 32.294Z" fill="#FFBC00"/>
<path d="M62.3077 45.7727C62.3077 46.1517 62.5259 46.4946 62.8589 46.6286C62.9619 46.6652 63.0655 46.69 63.1686 46.69C63.4096 46.69 63.6505 46.5802 63.8112 46.3842C66.4974 43.1429 68.4602 39.2533 69.4818 35.1307C69.6081 34.6413 69.3327 34.1401 68.8735 34.0055C68.4142 33.8833 67.9439 34.1644 67.8176 34.6537C66.888 38.4211 65.097 41.993 62.6517 45.0018C62.4456 45.1854 62.3076 45.4669 62.3076 45.7727L62.3077 45.7727Z" fill="#FFBC00"/>
<path d="M16.2426 29.8232H18.6418C18.6995 30.9117 18.8258 31.9885 19.0208 33.0521C19.8589 37.9693 21.9708 42.5809 25.1279 46.3848C25.2769 46.5683 25.4952 46.6539 25.7135 46.6539C25.8281 46.6539 25.9544 46.6297 26.0691 46.5807C26.4021 46.4461 26.6203 46.0548 26.6203 45.6758C26.6203 45.3458 26.4597 45.0766 26.2071 44.9296C23.3718 41.4314 21.4661 37.2113 20.7087 32.722C20.4905 31.4499 20.3641 30.1654 20.3298 28.8814C20.3182 28.3796 19.9393 27.9883 19.4689 27.9883H18.1831L21.9252 23.5846L25.6674 27.9883H24.4508C24.2215 27.9883 23.9916 28.0863 23.8309 28.2698C23.6703 28.4534 23.5783 28.6978 23.5899 28.9428C23.6475 30.3861 23.8193 31.7929 24.1063 33.0892C24.6686 35.719 25.6906 38.2143 27.1365 40.5141C27.4007 40.9302 27.9398 41.0524 28.3303 40.7585C28.7209 40.4769 28.8355 39.9025 28.5713 39.4864C27.2395 37.3701 26.2983 35.0826 25.782 32.6612C25.5754 31.7562 25.4374 30.8018 25.3571 29.8111H27.6069C27.9514 29.8111 28.2611 29.5909 28.3991 29.2609C28.537 28.9309 28.4794 28.539 28.25 28.2703L22.5562 21.5792C22.3955 21.3832 22.1657 21.2734 21.9136 21.2734C21.6726 21.2734 21.4316 21.3832 21.2709 21.5792L15.5993 28.294C15.3699 28.5632 15.3123 28.9545 15.4503 29.2845C15.5882 29.6151 15.8979 29.8229 16.2425 29.8229L16.2426 29.8232Z" fill="#FFBC00"/>
<path d="M32.2895 40.1961C29.9705 40.8567 28.3523 43.1193 28.3523 45.676C28.3523 46.1778 28.7428 46.5934 29.2132 46.5934C29.6841 46.5934 30.0741 46.1772 30.0741 45.676C30.0741 43.9393 31.176 42.4223 32.7371 41.9695L38.9932 40.1713V40.3673C38.9932 43.5844 41.4496 46.1896 44.4572 46.202H44.4688C45.9268 46.202 47.3041 45.5904 48.3373 44.5019C49.3705 43.401 49.9444 41.9335 49.9444 40.3797V40.1837L56.2005 41.9819C57.7733 42.4346 58.8636 43.9511 58.8636 45.6884V49.6027C58.8636 50.1045 59.2541 50.52 59.7245 50.52C60.1953 50.52 60.5854 50.1039 60.5854 49.6027V45.6884C60.5854 43.12 58.9666 40.8691 56.6481 40.2085L49.9444 38.2883V38.0191C50.2541 37.7747 50.5527 37.5055 50.8396 37.224C52.573 35.4258 53.537 33.0039 53.537 30.423L53.5376 26.5818C55.0643 22.1291 55.0643 19.1203 53.5259 17.4202C51.9416 15.6711 49.3018 16.0749 48.1191 16.3682C47.1202 15.0961 45.8 14.2401 44.1818 13.8365C41.7022 13.2125 39.0736 13.9097 37.1335 15.6959C32.8635 19.6344 34.2749 25.5547 35.7102 28.3556V30.0067C35.7102 33.0037 37.0187 35.7557 39.0048 37.6027V38.2875L32.2895 40.1961ZM47.12 43.1925C46.4082 43.9511 45.4669 44.3667 44.4681 44.3667C42.4018 44.3667 40.7259 42.5685 40.7259 40.3667V38.8379C41.8511 39.4743 43.0908 39.8532 44.3877 39.8898H44.6287C45.8912 39.8898 47.1083 39.6083 48.233 39.0705V40.3668C48.2102 41.4435 47.8319 42.4465 47.12 43.1927L47.12 43.1925ZM37.4199 29.9944V28.1108C37.4199 28.0865 37.4082 28.0742 37.4082 28.0494C37.4082 27.988 37.3855 27.9396 37.3739 27.8782C37.3623 27.8168 37.3395 27.756 37.3163 27.707C37.3046 27.6946 37.3046 27.6704 37.3046 27.658C37.1667 27.3888 33.8611 21.1262 38.2459 17.0772C39.7383 15.6953 41.8618 15.1446 43.7673 15.6215C45.1679 15.9763 46.2697 16.759 47.0619 17.9455C47.2802 18.2755 47.6702 18.4101 48.0375 18.2879C48.8524 18.0064 51.2057 17.5175 52.2733 18.7041C52.9275 19.426 53.3984 21.0895 52.2389 24.9301L52.2162 24.9059C51.8373 24.6001 51.5503 24.184 51.3897 23.7194C50.9304 22.4107 50.0008 21.3711 48.8413 20.8571C47.8198 20.4043 46.7063 20.4167 45.7075 20.8937C45.0992 21.1871 44.5253 21.5908 43.9741 22.1168C42.3443 24.0128 39.6005 24.2083 37.7408 22.5814C37.3735 22.2632 36.8339 22.3122 36.5242 22.7036C36.2256 23.0949 36.2716 23.6699 36.6389 23.9999C39.2105 26.2507 42.987 25.9568 45.1796 23.4126C45.5353 23.0702 45.9602 22.7644 46.4078 22.5566C47.1308 22.2142 47.7623 22.3606 48.1755 22.5442C48.8874 22.8624 49.4724 23.5229 49.771 24.3666C50.058 25.1617 50.5288 25.8465 51.1599 26.3606L51.7914 26.8742V30.3848C51.7914 32.4645 51.0225 34.4213 49.622 35.8771C48.2215 37.3328 46.3735 38.0666 44.4107 38.0542C40.6918 37.9579 37.4199 34.1905 37.4199 29.9947L37.4199 29.9944Z" fill="#FFBC00"/>
</svg>
