<svg width="63" height="57" viewBox="0 0 63 57" fill="none" xmlns="http://www.w3.org/2000/svg">
<path d="M59.5827 0.755371H35.895C34.4743 0.755371 33.3147 1.91491 33.3147 3.34532V17.6681H3.84915C2.17707 17.6681 0.804932 19.0402 0.804932 20.7123V43.7999C0.804932 45.4817 2.17707 46.8441 3.84915 46.8441H15.7552V51.9467H12.8846C11.5606 51.9467 10.4879 53.0291 10.4879 54.3532V56.0927C10.4879 56.4888 10.8068 56.8174 11.2126 56.8174H32.0201C32.4162 56.8174 32.7448 56.4888 32.7448 56.0927V54.3532C32.7448 53.0291 31.6624 51.9467 30.3383 51.9467H27.4678V46.8441H33.3146V48.3225C33.3146 49.7432 34.4741 50.9125 35.8949 50.9125H59.5814C61.0118 50.9125 62.1713 49.7432 62.1713 48.3225L62.1728 3.34507C62.1728 1.92435 61.0127 0.755371 59.5827 0.755371ZM2.25448 20.7217C2.25448 19.8423 2.96942 19.1273 3.8489 19.1273H39.3743C40.2538 19.1273 40.9688 19.8423 40.9688 20.7217V40.8906H31.7396L30.0388 40.8911H2.25435L2.25448 20.7217ZM17.2047 51.9567V46.8541H26.0185V51.9567H17.2047ZM60.7222 48.3325C60.7222 48.9605 60.2101 49.4731 59.5815 49.4731H35.895C35.267 49.4731 34.7641 48.961 34.7641 48.3325V46.8541H39.3742C41.056 46.8541 42.4184 45.4916 42.4184 43.8099V34.3485H57.591C57.9871 34.3485 58.3157 34.02 58.3157 33.6239V27.0428C58.3157 26.637 57.9871 26.3181 57.591 26.3181H42.4184V23.5351H57.591C57.9871 23.5351 58.3157 23.2162 58.3157 22.8104V16.2196C58.3157 15.8236 57.9871 15.495 57.591 15.495L37.8856 15.4935C37.4896 15.4935 37.161 15.8221 37.161 16.2182V17.6777H34.7642V3.34623C34.7642 2.71816 35.2666 2.20561 35.8951 2.20561H59.5817C60.2097 2.20561 60.7223 2.71767 60.7223 3.34623L60.7222 48.3325ZM47.1636 30.3281C47.1636 29.932 47.4922 29.6034 47.8882 29.6034H48.3522C48.7483 29.6034 49.0769 29.932 49.0769 30.3281C49.0769 30.7338 48.7483 31.0527 48.3522 31.0527H47.8882C47.4922 31.0527 47.1636 30.7338 47.1636 30.3281ZM50.4204 30.3281C50.4204 29.932 50.749 29.6034 51.145 29.6034H51.6091C52.0148 29.6034 52.3337 29.932 52.3337 30.3281C52.3337 30.7338 52.0148 31.0527 51.6091 31.0527H51.145C50.749 31.0527 50.4204 30.7338 50.4204 30.3281ZM53.6869 30.3281C53.6869 29.932 54.0058 29.6034 54.4115 29.6034H54.8658C55.2716 29.6034 55.5905 29.932 55.5905 30.3281C55.5905 30.7338 55.2716 31.0527 54.8658 31.0527H54.4115C54.0058 31.0527 53.6869 30.7338 53.6869 30.3281ZM47.1636 19.5136C47.1636 19.1176 47.4922 18.789 47.8882 18.789H48.3522C48.7483 18.789 49.0769 19.1176 49.0769 19.5136C49.0769 19.9194 48.7483 20.2383 48.3522 20.2383H47.8882C47.4922 20.2387 47.1636 19.9199 47.1636 19.5136ZM50.4204 19.5136C50.4204 19.1176 50.749 18.789 51.145 18.789H51.6091C52.0148 18.789 52.3337 19.1176 52.3337 19.5136C52.3337 19.9194 52.0148 20.2383 51.6091 20.2383H51.145C50.749 20.2387 50.4204 19.9199 50.4204 19.5136ZM53.6869 19.5136C53.6869 19.1176 54.0058 18.789 54.4115 18.789H54.8658C55.2716 18.789 55.5905 19.1176 55.5905 19.5136C55.5905 19.9194 55.2716 20.2383 54.8658 20.2383H54.4115C54.0058 20.2387 53.6869 19.9199 53.6869 19.5136Z" fill="#363636"/>
<path d="M57.5923 4.6792H37.8968C37.491 4.6792 37.1721 5.00779 37.1721 5.40385V11.985C37.1721 12.381 37.491 12.7096 37.8968 12.7096H57.5923C57.9883 12.7096 58.3169 12.381 58.3169 11.985V5.40385C58.3169 5.01749 57.9883 4.6792 57.5923 4.6792ZM48.3534 9.42421H47.8893C47.4933 9.42421 47.1647 9.10532 47.1647 8.70926C47.1647 8.3035 47.4933 7.9749 47.8893 7.9749H48.3534C48.7494 7.9749 49.078 8.30349 49.078 8.70926C49.078 9.10532 48.7494 9.42421 48.3534 9.42421ZM51.6102 9.42421H51.1462C50.7501 9.42421 50.4215 9.10532 50.4215 8.70926C50.4215 8.3035 50.7501 7.9749 51.1462 7.9749H51.6102C52.0159 7.9749 52.3348 8.30349 52.3348 8.70926C52.3348 9.10532 52.0159 9.42421 51.6102 9.42421ZM54.867 9.42421H54.4127C54.0069 9.42421 53.6881 9.10532 53.6881 8.70926C53.6881 8.3035 54.0069 7.9749 54.4127 7.9749H54.867C55.2728 7.9749 55.5916 8.30349 55.5916 8.70926C55.5916 9.10532 55.2728 9.42421 54.867 9.42421Z" fill="#109CDD"/>
<path d="M29.1405 25.3218C29.0051 25.1577 28.8022 25.0607 28.5896 25.0607H16.4705L15.6007 21.9199C15.5138 21.601 15.2235 21.3884 14.9047 21.3884H11.01C10.614 21.3884 10.2854 21.717 10.2854 22.1131C10.2854 22.5091 10.614 22.8377 11.01 22.8377H14.3537L15.2138 25.9397L16.5378 33.9128C16.5956 34.2609 16.9053 34.5215 17.2528 34.5215H27.2552C27.6129 34.5215 27.9124 34.2604 27.9702 33.9128L29.3039 25.9013C29.3432 25.6984 29.285 25.4956 29.1403 25.3218H29.1405ZM19.5729 33.0726H17.8721L17.4469 30.5119H19.5728L19.5729 33.0726ZM19.5729 29.0713H17.2053L16.7801 26.5197H19.5729L19.5729 29.0713ZM23.4966 33.0726H21.0227V30.5119H23.4966V33.0726ZM23.4966 29.0713H21.0227V26.5197H23.4966V29.0713ZM26.6374 33.0726H24.9464V30.5119H27.0631L26.6374 33.0726ZM27.3038 29.0713H24.9458V26.5197H27.7288L27.3038 29.0713Z" fill="#109CDD"/>
<path d="M27.2755 37.3821C27.2755 38.4159 26.4251 39.2571 25.3908 39.2571C24.357 39.2571 23.5061 38.4164 23.5061 37.3821C23.5061 36.3385 24.3565 35.4974 25.3908 35.4974C26.4251 35.4877 27.2755 36.3288 27.2755 37.3821Z" fill="#109CDD"/>
<path d="M21.0031 37.3821C21.0031 38.4159 20.1624 39.2571 19.1184 39.2571C18.0846 39.2571 17.2434 38.4164 17.2434 37.3821C17.2434 36.3385 18.0841 35.4974 19.1184 35.4974C20.1624 35.4877 21.0031 36.3288 21.0031 37.3821Z" fill="#109CDD"/>
<path d="M24.753 15.9954H26.5503C26.9464 15.9954 27.275 15.6668 27.275 15.2708C27.275 14.8747 26.9464 14.5461 26.5503 14.5461H24.753C24.3569 14.5461 24.0283 14.8747 24.0283 15.2708C24.0283 15.6668 24.3472 15.9954 24.753 15.9954Z" fill="#363636"/>
<path d="M6.61332 15.9954H22.027C22.4231 15.9954 22.7517 15.6668 22.7517 15.2708C22.7517 14.8747 22.4231 14.5461 22.027 14.5461L6.61332 14.5457C6.21726 14.5457 5.88867 14.8742 5.88867 15.2703C5.88819 15.6668 6.21678 15.9954 6.61332 15.9954V15.9954Z" fill="#363636"/>
<path d="M48.3043 45.6945C46.4007 45.6945 44.8542 44.1481 44.8542 42.2444C44.8542 41.3941 45.1634 40.582 45.724 39.9539C45.9949 39.6545 46.4487 39.6254 46.7486 39.8962C47.0481 40.167 47.0772 40.6208 46.8064 40.9208C46.4778 41.2882 46.304 41.7614 46.304 42.2545C46.304 43.3563 47.2029 44.2553 48.3048 44.2553C49.4066 44.2553 50.3055 43.3564 50.3055 42.2545C50.3055 41.8391 50.1798 41.4425 49.9381 41.095C49.7061 40.7664 49.7833 40.3121 50.1119 40.0898C50.4404 39.8578 50.8948 39.935 51.117 40.2636C51.5325 40.8533 51.7451 41.5392 51.7451 42.2545C51.7548 44.1479 50.2085 45.6943 48.3044 45.6943L48.3043 45.6945Z" fill="#109CDD"/>
<path d="M48.3042 42.582C47.9082 42.582 47.5796 42.2534 47.5796 41.8573V38.9966C47.5796 38.6006 47.9082 38.272 48.3042 38.272C48.7003 38.272 49.0289 38.6006 49.0289 38.9966V41.8573C49.0293 42.2631 48.7105 42.582 48.3042 42.582Z" fill="#109CDD"/>
</svg>
