<svg width="75" height="74" viewBox="0 0 75 74" fill="none" xmlns="http://www.w3.org/2000/svg">
<path d="M21.236 57.7467L16.3602 57.3534L14.4726 52.792C14.0792 51.8484 13.1357 51.2192 12.1131 51.2192C11.0905 51.2192 10.147 51.8485 9.75362 52.792L7.86601 57.3534L2.9902 57.7467C1.96766 57.8251 1.1026 58.5334 0.709797 59.5554C0.395458 60.5779 0.709796 61.6 1.49646 62.3082L5.27126 65.5328L4.17026 70.3301C3.77693 71.3526 4.17026 72.3747 5.03538 73.0038C5.90049 73.6331 7.00149 73.6331 7.86658 73.0823L12.1131 70.487L16.3596 73.0823C16.7529 73.3182 17.2247 73.4756 17.6965 73.4756C18.2473 73.4756 18.7975 73.3182 19.1909 73.0038C20.056 72.3746 20.4493 71.352 20.2134 70.3301L19.1124 65.5328L22.8872 62.3082C23.6739 61.6005 23.9882 60.578 23.6739 59.5554C23.2021 58.5334 22.337 57.8258 21.236 57.7467L21.236 57.7467ZM17.1463 63.4882C16.4387 64.1174 16.1238 65.0609 16.2812 66.0834L17.3822 70.6448L13.3715 68.207C12.9782 67.9711 12.5064 67.8136 12.0346 67.8136C11.5628 67.8136 11.091 67.9711 10.6977 68.207L6.68699 70.6448L7.78799 66.0834C8.02388 65.1399 7.70954 64.1958 6.92287 63.4882L3.38401 60.421L8.02389 60.0277C8.96745 59.9492 9.83257 59.32 10.2259 58.4549L12.0346 54.1294L13.8433 58.4549C14.2366 59.3201 15.0227 59.9493 16.0453 60.0277L20.6852 60.421L17.1463 63.4882Z" fill="#FFBC00"/>
<path d="M46.0089 52.9069L41.1331 52.4352L39.2455 47.9521C38.8522 47.0086 37.9086 46.3794 36.886 46.3794C35.8635 46.3794 34.9199 47.0086 34.5266 47.9521L32.639 52.5135L27.7632 52.9069C26.7406 52.9853 25.8755 53.6935 25.4827 54.7155C25.1684 55.7381 25.4827 56.7601 26.2694 57.4684L30.0442 60.6929L28.9432 65.4902C28.7073 66.5128 29.1007 67.5349 29.9658 68.164C30.8309 68.7932 31.9319 68.7932 32.797 68.2425L37.0435 65.6472L41.29 68.2425C41.6833 68.4784 42.1551 68.6358 42.6269 68.6358C43.1777 68.6358 43.7279 68.4783 44.1213 68.164C44.9864 67.5348 45.3797 66.5122 45.1438 65.4902L44.0428 60.6929L47.8176 57.4684C48.6043 56.7607 48.9186 55.7382 48.6043 54.7155C47.975 53.6145 47.1099 52.9854 46.009 52.9069L46.0089 52.9069ZM41.9198 58.5693C41.2122 59.1986 40.8973 60.1421 41.0547 61.0862L42.1557 65.6476L38.145 63.2098C37.7517 62.9739 37.2799 62.8164 36.8081 62.8164C36.3363 62.8164 35.8646 62.9739 35.4712 63.2098L31.4605 65.6476L32.5615 61.0862C32.7974 60.1427 32.4831 59.1986 31.6964 58.491L28.1575 55.4238L32.7974 55.0305C33.741 54.9521 34.6061 54.3228 34.9994 53.4578L36.8081 49.1322L38.6168 53.4578C39.0101 54.3229 39.7963 54.9521 40.8189 55.0305L45.4587 55.4238L41.9198 58.5693Z" fill="#FFBC00"/>
<path d="M70.7821 49.0533L65.9063 48.66L64.0187 44.0986C63.6254 43.1551 62.6818 42.5259 61.6592 42.5259C60.6367 42.5259 59.6931 43.1551 59.2998 44.0986L57.4122 48.66L52.5363 49.0533C51.5138 49.1318 50.6487 49.84 50.2559 50.862C49.9416 51.8846 50.2559 52.9066 51.0426 53.6148L54.8174 56.8394L53.7164 61.6367C53.4805 62.6593 53.8738 63.6813 54.739 64.3105C55.6041 64.9397 56.7051 64.9397 57.5702 64.3889L61.8167 61.7937L66.0632 64.3889C66.4565 64.6248 66.9283 64.7823 67.4001 64.7823C67.9508 64.7823 68.5011 64.6248 68.8945 64.3105C69.7596 63.6813 70.1529 62.6587 69.917 61.6367L68.816 56.8394L72.5908 53.6148C73.3775 52.9072 73.6918 51.8847 73.3775 50.862C72.7482 49.84 71.8831 49.1324 70.7822 49.0533L70.7821 49.0533ZM66.6925 54.7948C65.9848 55.424 65.6699 56.3675 65.8274 57.3901L66.9284 61.9514L62.9176 59.5136C62.5243 59.2777 62.0525 59.1203 61.5807 59.1203C61.109 59.1203 60.6372 59.2777 60.2439 59.5136L56.2331 61.9514L57.3341 57.3901C57.57 56.4465 57.2557 55.5025 56.469 54.7948L52.9302 51.7277L57.57 51.3343C58.5136 51.2559 59.3787 50.6267 59.7721 49.7616L61.5808 45.436L63.3894 49.7616C63.7828 50.6267 64.5689 51.256 65.5915 51.3343L70.2314 51.7277L66.6925 54.7948Z" fill="#FFBC00"/>
<path d="M74.557 34.5042L73.6919 27.0331C73.2201 22.865 70.2314 19.483 66.3782 18.2251C68.5803 16.4164 70.0745 13.5852 70.0745 10.5181C70.0745 5.01311 65.5915 0.530097 60.0865 0.530097C54.5816 0.530097 50.0985 5.01311 50.0985 10.5181C50.0985 13.6636 51.5139 16.4164 53.7948 18.2251C50.9636 19.0902 48.6041 21.2137 47.3457 23.8875C46.2447 22.9439 44.9862 22.2357 43.5709 21.7639C45.8513 19.9553 47.2672 17.1241 47.2672 14.0569C47.2672 8.55196 42.7842 4.06895 37.2792 4.06895C31.7742 4.06895 27.2912 8.55196 27.2912 14.0569C27.2912 17.2024 28.7066 19.9553 30.9875 21.7639C29.5722 22.1573 28.3137 22.8649 27.2912 23.8086C26.0328 21.0557 23.6733 19.0112 20.8421 18.1462C23.1225 16.3375 24.5384 13.5063 24.5384 10.4391C24.5384 4.93418 20.0554 0.451172 14.5504 0.451172C9.04545 0.451172 4.56243 4.93418 4.56243 10.4391C4.56243 13.5846 5.97775 16.3375 8.25872 18.1462C4.405 19.3256 1.4168 22.7075 0.945072 26.9542L0.0799548 34.4253C-0.312832 36.1554 0.788176 37.7283 2.36149 38.0432C6.2152 38.8299 10.2259 39.3016 14.3941 39.3016C17.2253 39.3016 19.9781 39.0657 22.6519 38.6724C22.7303 40.0877 23.7529 41.3462 25.1688 41.661C29.0225 42.4477 33.0332 42.9195 37.2014 42.9195C41.291 42.9195 45.3801 42.5261 49.234 41.661C50.6493 41.3467 51.6718 40.0883 51.7509 38.6724C54.4247 39.0657 57.2559 39.3016 60.0871 39.3016C64.1767 39.3016 68.2658 38.9083 72.1196 38.0432C73.6135 37.7283 74.7145 36.1556 74.5569 34.5043L74.557 34.5042ZM52.7725 10.5177C52.7725 6.50693 55.997 3.28237 60.0078 3.28237C64.0185 3.28237 67.243 6.50693 67.243 10.5177C67.243 14.5284 64.0185 17.7529 60.0078 17.7529C55.997 17.7529 52.7725 14.5284 52.7725 10.5177ZM29.8869 14.135C29.8869 10.1243 33.1115 6.89973 37.1222 6.89973C41.133 6.89973 44.3575 10.1243 44.3575 14.135C44.3575 18.1457 41.133 21.3703 37.1222 21.3703C33.19 21.3708 29.8869 18.1463 29.8869 14.135ZM7.15871 10.5177C7.15871 6.50693 10.3833 3.28237 14.394 3.28237C18.4047 3.28237 21.6293 6.50693 21.6293 10.5177C21.6293 14.5284 18.4047 17.7529 14.394 17.7529C10.3833 17.7529 7.15871 14.5284 7.15871 10.5177ZM2.99056 35.3693C2.67622 35.3693 2.51877 35.1334 2.59777 34.8185L3.46289 27.3474C3.93467 23.4152 7.23768 20.5055 11.1699 20.5055H17.461C20.9999 20.5055 24.067 22.9433 24.9321 26.3253C24.1454 27.5838 23.5952 29.0782 23.3594 30.6509L22.7301 35.9201C16.439 36.9421 9.36129 36.7846 2.99039 35.3693L2.99056 35.3693ZM48.6043 38.9866C41.2907 40.5594 33.0327 40.5594 25.7188 38.9866C25.4829 38.9082 25.3255 38.6723 25.3255 38.4359L26.1906 30.9648C26.6624 27.0326 29.9654 24.1229 33.8976 24.1229H40.3467C44.2789 24.1229 47.582 27.0326 48.0537 30.9648L48.9188 38.4359C48.9978 38.6723 48.8404 38.9866 48.6045 38.9866H48.6043ZM71.4112 35.3693C65.0411 36.7062 57.8844 36.8637 51.3569 35.8411L50.8061 30.6504C50.6487 29.0776 50.0984 27.6618 49.3117 26.4039C50.1768 23.0225 53.2439 20.5056 56.8619 20.5056H63.153C67.0852 20.5056 70.3883 23.4153 70.86 27.3475L71.7251 34.8185C71.8831 35.1334 71.7257 35.3693 71.4113 35.3693L71.4112 35.3693Z" fill="#FFBC00"/>
</svg>
