<svg width="120" height="58" viewBox="0 0 120 58" fill="none" xmlns="http://www.w3.org/2000/svg">
<g clip-path="url(#clip0_7_755)">
<path d="M90.3654 35.7664H93.1825V34.5251H91.902V27.5328H93.1825V26.2914H90.3654V27.6999C89.9625 27.1719 89.4412 26.7457 88.8439 26.4557C88.2463 26.1656 87.589 26.0197 86.9251 26.0297C84.236 26.0297 82.2432 28.1897 82.2432 31.0401C82.2432 33.8905 84.236 36.0503 86.9251 36.0503C87.589 36.0603 88.2463 35.9147 88.8439 35.6244C89.4412 35.3344 89.9625 34.9084 90.3654 34.3801V35.7664ZM80.9013 33.2224H79.3648C79.0631 33.7252 78.6288 34.1352 78.1092 34.4075C77.5896 34.6795 77.005 34.8031 76.42 34.7644C74.2766 34.7644 73.1243 33.4617 72.9794 31.5411H81.1186V30.8619C81.1186 27.9726 79.2705 26.013 76.3644 26.013C73.4583 26.013 71.4042 28.084 71.4042 31.0234C71.4042 33.9629 73.436 36.0337 76.3644 36.0337C77.3173 36.0773 78.2612 35.831 79.0711 35.3271C79.8814 34.8231 80.5193 34.0855 80.9013 33.2112V33.2224ZM60.9211 27.7833V23.3297H62.2963V22.0437H57.9597V23.3297H59.3293V34.4638H57.9597V35.7444H62.2963V34.4638H60.9211V29.0137H67.8022V34.4638H66.4326V35.7444H70.7696V34.4638H69.3943V23.3297H70.7696V22.0437H66.4326V23.3297H67.8022V27.7833H60.9211ZM108.008 34.5251H106.727V30.2774C106.727 28.3011 107.735 27.3157 109.51 27.3157C111.103 27.3157 112.127 28.3011 112.127 30.2774V34.5251H110.847V35.7664H114.944V34.5251H113.664V30.2774C113.664 27.917 112.255 26.013 109.694 26.013C109.129 25.9859 108.566 26.0928 108.05 26.325C107.535 26.5572 107.081 26.9082 106.727 27.3491V22.0437H103.91V23.2907H105.224V34.5251H103.944V35.7664H108.008V34.5251ZM83.7964 31.029C83.7964 28.8689 85.1712 27.3157 87.1364 27.3157C89.1016 27.3157 90.4321 28.9079 90.4321 31.029C90.4321 33.15 89.0962 34.7421 87.1364 34.7421C85.1769 34.7421 83.7964 33.189 83.7964 31.029ZM76.353 27.2935C78.3629 27.2935 79.4094 28.7242 79.5708 30.3164H72.985C73.005 29.8943 73.1087 29.4804 73.2903 29.0989C73.472 28.7174 73.728 28.3759 74.0429 28.0944C74.3582 27.813 74.7262 27.5972 75.1258 27.4596C75.5251 27.3221 75.9481 27.2656 76.3697 27.2935H76.353ZM101.143 33.317V27.5328H103.064V26.2914H101.143V23.8864H99.6066V26.2914H98.1427V27.5328H99.6066V33.3894C99.6066 35.0594 100.358 35.8947 102.134 35.8947C102.448 35.8913 102.761 35.8483 103.064 35.7664V34.5251C102.805 34.5745 102.542 34.5988 102.279 34.5975C101.511 34.5975 101.165 34.3245 101.165 33.317H101.143ZM97.3631 35.8947C97.6534 35.8917 97.9421 35.8483 98.2204 35.7664V34.5251C97.9974 34.5741 97.7698 34.5985 97.5415 34.5975C96.8845 34.5975 96.5725 34.2468 96.5725 33.2224V22.0437H93.7558V23.2907H95.036V33.3114C95.036 35.0094 95.7153 35.9057 97.3631 35.9057" fill="black"/>
<path d="M48.735 31.4686C48.9576 32.4929 49.5422 32.8603 50.7505 32.8603C51.8137 32.8603 52.4203 32.4762 52.4203 31.8694C52.4203 31.0121 51.63 30.9397 50.0042 30.5166C48.1004 30.0211 46.8758 29.6036 46.3079 29.1972C45.7942 28.8498 45.378 28.377 45.0983 27.8236C44.8187 27.2702 44.685 26.6546 44.71 26.0351C44.71 23.3796 46.7978 21.6594 50.4385 21.6594C53.9682 21.6594 56.0556 23.2126 56.295 25.9795H52.142C51.9917 25.1555 51.4241 24.7714 50.3662 24.7714C49.4309 24.7714 48.9743 25.0831 48.9743 25.7011C48.9743 26.436 49.6869 26.564 51.0064 26.9091C52.71 27.3489 54.0628 27.6273 54.9034 28.2119C55.4594 28.5356 55.917 29.0046 56.2266 29.5685C56.5366 30.1324 56.6873 30.7699 56.6626 31.4129C56.6626 34.3969 54.5191 36.1338 50.5388 36.1338C46.8588 36.1338 44.699 34.3969 44.415 31.4686H48.735Z" fill="#CC0000"/>
<path d="M32.5794 30.422C32.34 34.0293 29.9629 36.1338 26.0269 36.1338C21.6568 36.1338 18.9846 33.3502 18.9846 28.8966C18.9846 24.4429 21.6735 21.6594 25.9379 21.6594C29.9072 21.6594 32.2509 23.6747 32.507 27.2265H28.315C28.3198 26.9292 28.2615 26.6343 28.1438 26.3613C28.026 26.0883 27.8517 25.8434 27.6322 25.6429C27.4127 25.4423 27.1531 25.2908 26.8706 25.1981C26.5881 25.1054 26.2892 25.0738 25.9935 25.1054C24.2733 25.0999 23.3882 26.3636 23.3882 28.8966C23.3882 31.4296 24.3234 32.6822 26.0993 32.6822C27.4354 32.6822 28.276 31.875 28.4041 30.4108L32.5794 30.422Z" fill="#CC0000"/>
<path d="M31.6443 22.0437H36.1315L38.4359 30.9009L40.9077 22.0437H45.2223L40.6127 35.7497H36.2371L31.6443 22.0437Z" fill="#CC0000"/>
<path d="M4.91123 21.6594C4.64315 21.6611 4.37811 21.7162 4.13153 21.8213C3.88495 21.9264 3.66174 22.0796 3.47492 22.2718L0.602314 25.15C0.413121 25.3383 0.26299 25.5621 0.160548 25.8085C0.0581066 26.0551 0.00537109 26.3193 0.00537109 26.5863C0.00537109 26.8532 0.0581066 27.1175 0.160548 27.364C0.26299 27.6104 0.413121 27.8343 0.602314 28.0226L8.71351 36.1338L16.8247 28.0226C17.2054 27.6415 17.4193 27.1249 17.4193 26.5863C17.4193 26.0476 17.2054 25.531 16.8247 25.15L13.9521 22.2774C13.7641 22.0867 13.54 21.9352 13.293 21.8319C13.046 21.7285 12.7808 21.6753 12.513 21.6753C12.2452 21.6753 11.9801 21.7285 11.733 21.8319C11.486 21.9352 11.2619 22.0867 11.0739 22.2774L8.71351 24.6378L6.34753 22.2774C6.16135 22.0839 5.9384 21.9295 5.69172 21.8234C5.44508 21.7173 5.1797 21.6616 4.91123 21.6594Z" fill="#CC0000"/>
<path d="M117.928 35.8723C117.651 35.8787 117.375 35.828 117.118 35.7237C116.861 35.6197 116.628 35.4637 116.434 35.266C116.239 35.0684 116.087 34.8331 115.987 34.5744C115.887 34.3158 115.841 34.0395 115.852 33.7625C115.852 33.2131 116.07 32.6863 116.458 32.298C116.847 31.9096 117.373 31.6914 117.922 31.6914C118.472 31.6914 118.999 31.9096 119.387 32.298C119.775 32.6863 119.994 33.2131 119.994 33.7625C120.003 34.0382 119.956 34.3128 119.856 34.5701C119.756 34.8271 119.605 35.0614 119.412 35.2584C119.219 35.4557 118.988 35.6117 118.733 35.7173C118.478 35.8227 118.204 35.8753 117.928 35.8723ZM117.928 32.0143C117.706 32.02 117.487 32.07 117.284 32.1614C117.081 32.2528 116.899 32.3837 116.748 32.5466C116.597 32.7094 116.479 32.9008 116.403 33.1095C116.326 33.3183 116.292 33.5403 116.303 33.7625C116.284 33.9865 116.312 34.2118 116.385 34.4245C116.458 34.6371 116.574 34.8324 116.727 34.9977C116.879 35.1631 117.063 35.295 117.269 35.3854C117.475 35.4757 117.698 35.5224 117.922 35.5224C118.147 35.5224 118.37 35.4757 118.576 35.3854C118.781 35.295 118.966 35.1631 119.119 34.9977C119.271 34.8324 119.387 34.6371 119.46 34.4245C119.533 34.2118 119.561 33.9865 119.543 33.7625C119.553 33.5412 119.519 33.3201 119.444 33.1121C119.368 32.904 119.251 32.7131 119.101 32.5504C118.951 32.3878 118.77 32.2566 118.568 32.1646C118.367 32.0725 118.149 32.0214 117.928 32.0143ZM117.51 34.9704H117.126V32.6323H118.028C118.585 32.6323 118.88 32.8271 118.88 33.3059C118.886 33.3885 118.875 33.4714 118.847 33.5494C118.819 33.6274 118.775 33.6985 118.718 33.7585C118.661 33.8185 118.592 33.8655 118.515 33.8968C118.438 33.9282 118.356 33.9432 118.273 33.9405L118.925 34.9704H118.49L117.889 33.9685H117.527L117.51 34.9704ZM117.939 33.6399C118.229 33.6399 118.496 33.6121 118.496 33.278C118.496 32.944 118.223 32.9607 117.989 32.9607H117.527V33.6399H117.939Z" fill="black"/>
</g>
<defs>
<clipPath id="clip0_7_755">
<rect width="119.989" height="57.3281" fill="white" transform="translate(0.00537109 0.328125)"/>
</clipPath>
</defs>
</svg>
