<svg width="57" height="58" viewBox="0 0 57 58" fill="none" xmlns="http://www.w3.org/2000/svg">
<path d="M56.8625 22.8772C56.8625 19.1501 54.0615 16.0713 50.4555 15.618V15.5551C50.4555 7.48045 43.8858 0.9104 35.8108 0.9104C30.8602 0.9104 26.2387 3.441 23.5454 7.56992C21.9467 6.80399 20.1919 6.40226 18.421 6.40226C12.8472 6.40226 8.09714 10.217 6.8477 15.5785C3.08489 15.8789 0.115723 19.0385 0.115723 22.8768C0.115723 26.9139 3.40075 30.199 7.43787 30.199V48.5038H6.5227C5.00899 48.5038 3.77677 49.7356 3.77677 51.2497C3.77677 54.7825 6.6517 57.6568 10.1838 57.6568H46.7945C50.3265 57.6568 53.2015 54.783 53.2015 51.2497C53.2015 49.736 51.9697 48.5038 50.4556 48.5038H49.5404V30.199C53.5775 30.199 56.8625 26.9144 56.8625 22.8768L56.8625 22.8772ZM51.3707 51.2506C51.3707 53.774 49.3179 55.8268 46.7945 55.8268H10.1838C7.66039 55.8268 5.60758 53.774 5.60758 51.2506C5.60758 50.7463 6.01767 50.3354 6.52274 50.3354H22.0825V51.2506C22.0825 52.7643 23.3143 53.9965 24.8284 53.9965H32.1506C33.6643 53.9965 34.8965 52.7647 34.8965 51.2506V50.3354H50.4562C50.9617 50.3354 51.3714 50.7463 51.3714 51.2506H51.3707ZM23.9135 50.3354H33.0663V51.2506C33.0663 51.7549 32.6562 52.1657 32.1511 52.1657H24.829C24.3239 52.1657 23.9138 51.7549 23.9138 51.2506L23.9135 50.3354ZM9.26876 48.5047V27.4537C9.26876 25.94 10.5006 24.7078 12.0147 24.7078H16.5909V22.8771H12.0147C9.49129 22.8771 7.43847 24.9299 7.43847 27.4533V28.3685C4.40993 28.3685 1.94671 25.9056 1.94671 22.8767C1.94671 19.8498 4.408 17.3869 7.46229 17.3869H7.46585L8.3727 17.4114L8.50452 16.6289C9.31915 11.7645 13.4889 8.23321 18.4213 8.23321C20.1685 8.23321 21.8995 8.69633 23.4242 9.57314L24.2206 10.0307L24.6755 9.23154C26.9542 5.22846 31.2214 2.74185 35.811 2.74185C42.877 2.74185 48.6246 8.48978 48.6246 15.5554V15.6148C46.5836 15.8729 44.7245 16.9812 43.531 18.6928L45.0327 19.741C46.0599 18.2654 47.745 17.3858 49.5397 17.3858C52.5683 17.3858 55.0315 19.8487 55.0315 22.8776C55.0315 25.9061 52.5686 28.3693 49.5397 28.3693V27.4542C49.5397 24.9308 47.4869 22.878 44.9635 22.878H40.3873V24.7087H44.9635C46.4772 24.7087 47.7094 25.9405 47.7094 27.4546V48.5056L9.26876 48.5047Z" fill="#3C3C3C"/>
<path d="M35.8113 6.40268C40.2304 6.40268 44.0158 9.5511 44.813 13.8907L46.6132 13.5602C45.6569 8.35104 41.1136 4.57202 35.8111 4.57202C35.1402 4.57202 34.4684 4.63258 33.8149 4.75332L34.1455 6.5536C34.6901 6.45306 35.251 6.40279 35.8112 6.40279L35.8113 6.40268Z" fill="#3C3C3C"/>
<path d="M37.6414 15.5557C36.1277 15.5557 34.8955 16.7875 34.8955 18.3016C34.8955 19.8153 36.1273 21.0475 37.6414 21.0475C39.1552 21.0475 40.3874 19.8157 40.3874 18.3016C40.387 16.7876 39.1552 15.5557 37.6414 15.5557ZM37.6414 19.2167C37.1364 19.2167 36.7263 18.8059 36.7263 18.3016C36.7263 17.7973 37.1364 17.3864 37.6414 17.3864C38.1465 17.3864 38.5566 17.7973 38.5566 18.3016C38.5566 18.8059 38.1465 19.2167 37.6414 19.2167Z" fill="#109CDD"/>
<path d="M19.3368 21.047C20.8505 21.047 22.0827 19.8152 22.0827 18.3011C22.0827 16.7874 20.8509 15.5552 19.3368 15.5552C17.823 15.5552 16.5908 16.787 16.5908 18.3011C16.5912 19.8148 17.823 21.047 19.3368 21.047ZM19.3368 17.386C19.8418 17.386 20.2519 17.7968 20.2519 18.3011C20.2519 18.8054 19.8418 19.2163 19.3368 19.2163C18.8317 19.2163 18.4216 18.8054 18.4216 18.3011C18.4216 17.7968 18.8317 17.386 19.3368 17.386Z" fill="#109CDD"/>
<path d="M28.4891 15.5558C30.0028 15.5558 31.235 14.324 31.235 12.8099C31.235 11.2962 30.0032 10.064 28.4891 10.064C26.9754 10.064 25.7432 11.2958 25.7432 12.8099C25.7432 14.3239 26.9754 15.5558 28.4891 15.5558ZM28.4891 11.8948C28.9942 11.8948 29.4043 12.3056 29.4043 12.8099C29.4043 13.3142 28.9942 13.7251 28.4891 13.7251C27.984 13.7251 27.5739 13.3142 27.5739 12.8099C27.5739 12.3056 27.984 11.8948 28.4891 11.8948Z" fill="#109CDD"/>
<path d="M27.5742 28.3694H29.4049V32.0305H27.5742V28.3694Z" fill="#109CDD"/>
<path d="M27.5742 24.7083H29.4049V26.5389H27.5742V24.7083Z" fill="#109CDD"/>
<path d="M27.5742 17.3857H29.4049V22.8775H27.5742V17.3857Z" fill="#109CDD"/>
<path d="M18.4204 22.8772H20.2511V24.7079H18.4204V22.8772Z" fill="#109CDD"/>
<path d="M18.4204 32.4095L20.5191 34.5082L21.8134 33.2142L20.2511 31.6514V26.5388H18.4204V32.4095Z" fill="#109CDD"/>
<path d="M36.7266 22.8772H38.5573V24.7079H36.7266V22.8772Z" fill="#109CDD"/>
<path d="M36.7264 31.6516L35.1641 33.2144L36.4584 34.5084L38.5571 32.4097V26.5391H36.7264V31.6516Z" fill="#109CDD"/>
<path d="M44.0491 26.5385H40.3881V28.3691H44.0491V44.8439H40.3881V42.3652L38.7169 41.775C38.6603 41.6313 38.6005 41.4876 38.5376 41.344L39.3027 39.744L34.5048 34.9446L32.904 35.7097C32.7623 35.6464 32.6175 35.587 32.473 35.5304L31.8836 33.8604H25.0959L24.5065 35.5316C24.362 35.5882 24.2183 35.648 24.0754 35.7109L22.4746 34.9458L17.6767 39.7452L18.4419 41.3452C18.3785 41.4889 18.3184 41.6325 18.2626 41.7762L16.5914 42.3652V44.8435H12.9303V28.3688H16.5914V26.5381H12.9303C11.9209 26.5381 11.0996 27.359 11.0996 28.3688V44.8435C11.0996 45.8529 11.9206 46.6742 12.9303 46.6742H44.0498C45.0591 46.6742 45.8804 45.8533 45.8804 44.8435L45.88 28.3688C45.88 27.359 45.0591 26.5381 44.0494 26.5381L44.0491 26.5385ZM18.422 43.6618L19.6969 43.2125L19.8398 42.7933C19.959 42.4454 20.1054 42.0931 20.2764 41.7443L20.4724 41.3461L19.8873 40.1249L22.8545 37.1578L24.0765 37.7416L24.4755 37.5457C24.8186 37.3763 25.1721 37.2298 25.5245 37.1091L25.9436 36.9654L26.3921 35.6916H30.5875L31.0368 36.9658L31.456 37.1095C31.8083 37.2302 32.1617 37.3767 32.505 37.5461L32.904 37.742L34.126 37.1582L37.0931 40.1253L36.5081 41.3465L36.704 41.7447C36.875 42.0934 37.0215 42.4457 37.1406 42.7937L37.2835 43.2129L38.5581 43.6618V44.8441H35.7492C35.296 41.2381 32.2172 38.4371 28.49 38.4371C24.7628 38.4371 21.6841 41.2381 21.2308 44.8441H18.4219L18.422 43.6618ZM33.8986 44.8441H23.0802C23.5176 42.251 25.7731 40.2679 28.4893 40.2679C31.206 40.2679 33.4604 42.2514 33.8986 44.8441Z" fill="#109CDD"/>
</svg>
