<svg width="70" height="65" viewBox="0 0 70 65" fill="none" xmlns="http://www.w3.org/2000/svg">
<path d="M58.6897 9.8564H49.2373V7.93548C49.2373 3.76036 45.8403 0.363281 41.6651 0.363281H27.4273C23.2517 0.363281 19.8551 3.76023 19.8551 7.93548V9.8569L10.8045 9.85641C5.07254 9.85641 0.409424 14.5195 0.409424 20.252V54.2378C0.409424 59.9697 5.07254 64.6334 10.8045 64.6334H58.6898C64.4218 64.6334 69.0854 59.9702 69.0854 54.2378V20.252C69.0854 14.5205 64.4218 9.85692 58.6898 9.85692L58.6897 9.8564ZM22.5965 7.93548C22.5965 5.27159 24.7642 3.1041 27.4279 3.1041H41.6657C44.3296 3.1041 46.4971 5.27172 46.4971 7.93548V9.8569L22.5958 9.85641L22.5965 7.93548ZM3.15049 20.252C3.15049 16.0313 6.58415 12.5971 10.8049 12.5971H58.6902C62.9109 12.5971 66.3451 16.0308 66.3451 20.252V30.0876L56.1081 35.7765C55.8683 33.373 53.8344 31.4892 51.3687 31.4892C48.742 31.4892 46.6052 33.626 46.6052 36.2527V38.1408H22.8918V36.2527C22.8918 33.626 20.755 31.4892 18.1284 31.4892C15.6627 31.4892 13.6288 33.3725 13.389 35.7765L3.15199 30.0876V25.3693L3.15049 20.252ZM49.3457 36.2526C49.3457 35.1372 50.253 34.2298 51.3685 34.2298C52.4839 34.2298 53.3912 35.1372 53.3912 36.2526V38.1016V38.1099V41.6234C53.3912 42.7388 52.4839 43.6462 51.3685 43.6462C50.253 43.6462 49.3457 42.7388 49.3457 41.6234V36.2526ZM16.1053 38.1099V38.1011V36.2526C16.1053 35.1372 17.0127 34.2298 18.1281 34.2298C19.2435 34.2298 20.1509 35.1371 20.1509 36.2526V41.6233C20.1509 42.7387 19.2435 43.6461 18.1281 43.6461C17.0127 43.6461 16.1053 42.7387 16.1053 41.6233V38.1099ZM58.6909 61.8922H10.8056C6.5849 61.8922 3.15124 58.4585 3.15124 54.2373L3.15075 33.2226L13.3638 38.8978V41.6228C13.3638 44.2495 15.5006 46.3863 18.1273 46.3863C20.7539 46.3863 22.8907 44.2495 22.8907 41.6228V40.8809H46.6054V41.6228C46.6054 44.2495 48.7422 46.3863 51.3688 46.3863C53.9955 46.3863 56.1323 44.2495 56.1323 41.6228V38.8978L66.3453 33.2226V54.2373C66.3458 58.4584 62.9117 61.8922 58.691 61.8922H58.6909Z" fill="#FFBC00"/>
</svg>
