<svg width="120" height="58" viewBox="0 0 120 58" fill="none" xmlns="http://www.w3.org/2000/svg">
<g clip-path="url(#clip0_7_767)">
<path fill-rule="evenodd" clip-rule="evenodd" d="M77.9577 20.3205C77.9167 20.3556 75.4083 20.5211 74.8753 20.5235C74.741 20.524 74.6057 20.5904 74.575 20.6712C74.5424 20.7559 74.4234 20.793 74.2921 20.7588C74.1637 20.7251 73.9884 20.7771 73.8864 20.8791C73.7874 20.9777 73.6098 21.0585 73.4911 21.0585C73.3725 21.0585 73.2755 21.1091 73.2755 21.1707C73.2755 21.2318 73.2108 21.2823 73.1315 21.2823C73.0525 21.2823 72.8135 21.431 72.6009 21.6129C72.3876 21.7947 72.1509 21.9458 72.0739 21.9482C71.9969 21.9506 71.9346 21.9953 71.9346 22.0473C71.9346 22.2201 71.522 22.6209 71.4303 22.5376C71.3803 22.4924 71.372 22.5121 71.411 22.5809C71.4933 22.7253 71.1103 23.2151 71.001 23.1059C70.961 23.066 70.9284 23.1169 70.9284 23.2194C70.9284 23.3219 70.8784 23.4056 70.8167 23.4056C70.755 23.4056 70.7051 23.4562 70.7051 23.5177C70.7051 23.5788 70.6044 23.7425 70.4814 23.881C70.0311 24.3872 69.9651 24.4834 69.9974 24.5864C70.0154 24.6441 69.8795 24.8626 69.6948 25.0724C69.5098 25.2817 69.3295 25.5708 69.2935 25.7147C69.2572 25.8586 69.1829 25.9765 69.1279 25.9765C69.0735 25.9765 69.0282 26.077 69.0282 26.2002C69.0282 26.3229 68.9872 26.4234 68.9372 26.4234C68.8872 26.4234 68.7786 26.5972 68.6952 26.8098C68.6116 27.022 68.5099 27.175 68.4693 27.15C68.4283 27.1245 68.3869 27.1769 68.3763 27.2664C68.3663 27.3564 68.3493 27.5027 68.3393 27.5922C68.3293 27.6817 68.2786 27.7288 68.2276 27.6971C68.1763 27.6658 68.1303 27.6802 68.1256 27.7303C68.0956 28.0445 68.016 28.2408 67.811 28.5016C67.683 28.6642 67.6027 28.8355 67.6313 28.8827C67.6607 28.9303 67.6097 29.0308 67.5183 29.1069C67.427 29.1829 67.352 29.3648 67.352 29.5106C67.352 29.6568 67.3114 29.7766 67.2624 29.7766C67.2134 29.7766 67.1064 29.9653 67.0247 30.1957C66.9431 30.4262 66.7821 30.8131 66.6671 31.0551C66.5518 31.2971 66.4578 31.5608 66.4578 31.6416C66.4578 31.7224 66.4074 31.7884 66.3458 31.7884C66.2848 31.7884 66.2341 31.9139 66.2341 32.0679C66.2341 32.2214 66.1841 32.347 66.1225 32.347C66.0608 32.347 66.0108 32.4677 66.0108 32.6145C66.0108 32.7617 65.9392 32.9095 65.8522 32.9431C65.7645 32.9763 65.7082 33.0952 65.7262 33.2063C65.7445 33.318 65.6775 33.5022 65.5778 33.6163C65.4779 33.7305 65.4042 33.8424 65.4142 33.8651C65.4599 33.9704 65.3035 34.3591 65.2152 34.3591C65.1612 34.3591 65.1246 34.3967 65.1342 34.4431C65.1439 34.489 65.1136 34.627 65.0666 34.7504C64.6443 35.8536 64.4899 36.2082 64.418 36.2406C64.372 36.2606 64.334 36.3992 64.334 36.5479C64.334 36.6962 64.284 36.8178 64.2223 36.8178C64.161 36.8178 64.111 36.9435 64.111 37.0975C64.111 37.2508 64.0603 37.3765 63.9987 37.3765C63.9377 37.3765 63.887 37.4531 63.887 37.5458C63.887 37.7298 63.6634 38.1744 63.5167 38.282C63.466 38.319 63.4084 38.4197 63.388 38.5054C63.2774 38.9743 63.1734 39.165 63.0291 39.165C62.9408 39.165 62.8984 39.214 62.9358 39.2746C63.0201 39.4113 61.4982 41.7681 61.3929 41.6631C61.3509 41.6207 61.3162 41.6477 61.3162 41.7224C61.3162 41.7971 61.1906 41.9744 61.0373 42.117C60.8833 42.2593 60.7576 42.436 60.7576 42.5097C60.7576 42.5826 60.7073 42.612 60.646 42.574C60.5843 42.536 60.534 42.575 60.534 42.661C60.534 42.8476 59.803 43.5382 59.7067 43.4419C59.6704 43.4049 59.6401 43.4546 59.6401 43.5516C59.6401 43.6489 59.4894 43.7955 59.3044 43.8769C59.1204 43.9589 58.9691 44.0835 58.9691 44.1542C58.9691 44.2835 58.6525 44.4698 58.4915 44.4345C58.4432 44.4245 58.3755 44.4918 58.3398 44.5848C58.3042 44.6775 58.2065 44.7531 58.1222 44.7531C58.0385 44.7531 57.8032 44.8471 57.5989 44.9621C57.1683 45.2041 56.662 45.3074 55.5328 45.3857C54.9135 45.4281 54.7222 45.4811 54.7222 45.608C54.7222 45.793 54.9838 46.0947 55.1441 46.0947C55.3311 46.0947 55.9517 46.4443 55.9517 46.5496C55.9517 46.6066 55.9894 46.6426 56.0357 46.6296C56.1054 46.61 57.6486 47.3099 58.3255 47.6679C58.4318 47.7248 58.6205 47.7708 58.7445 47.7708C58.8681 47.7708 58.9691 47.8215 58.9691 47.8825C58.9691 47.9442 59.1674 47.9948 59.4101 47.9948C59.6521 47.9948 59.8814 48.0448 59.9194 48.1065C59.9604 48.1731 60.682 48.2178 61.7075 48.2178C62.7334 48.2178 63.4544 48.1731 63.496 48.1065C63.534 48.0448 63.764 47.9948 64.007 47.9948C64.4519 47.9948 65.2472 47.6879 65.8152 47.2969C65.9838 47.1806 66.1225 47.1209 66.1225 47.1652C66.1225 47.2089 66.2458 47.1119 66.3964 46.9493C66.5474 46.7866 66.7234 46.6533 66.7874 46.6533C66.8521 46.6533 66.9051 46.6016 66.9051 46.5386C66.9051 46.4756 67.1187 46.2067 67.3797 45.9417C67.9806 45.3314 68.3753 44.8651 68.2913 44.8651C68.2556 44.8651 68.3569 44.7018 68.5172 44.5018C68.6776 44.3018 68.8479 44.0882 68.8959 44.0265C68.9445 43.9655 69.0175 43.8395 69.0595 43.7475C69.1009 43.6552 69.2875 43.3286 69.4742 43.0209C69.6611 42.7136 69.9001 42.2733 70.0061 42.0427C70.1124 41.8124 70.2374 41.6237 70.2841 41.6237C70.3311 41.6237 70.3697 41.5447 70.3697 41.4481C70.3697 41.3514 70.4457 41.1964 70.5381 41.1041C70.6311 41.0111 70.6787 40.8888 70.6434 40.8328C70.6084 40.7758 70.6301 40.7298 70.6907 40.7298C70.7517 40.7298 70.836 40.6165 70.8784 40.4782C71.005 40.0649 71.637 38.7767 71.7333 38.7367C71.7823 38.716 71.823 38.581 71.823 38.4357C71.823 38.2907 71.8729 38.1411 71.9346 38.1031C71.9959 38.0651 72.0459 37.9367 72.0459 37.8174C72.0459 37.6981 72.0966 37.6001 72.1576 37.6001C72.2192 37.6001 72.2699 37.5241 72.2699 37.4308C72.2699 37.3381 72.3142 37.1745 72.3686 37.0675C72.4229 36.9612 72.5182 36.7482 72.5805 36.5942C72.9079 35.7876 73.0735 35.4763 73.1758 35.4763C73.2378 35.4763 73.2602 35.4303 73.2248 35.3733C73.1652 35.2773 73.7051 33.9098 74.1551 33.0177C74.2634 32.8026 74.4224 32.3879 74.5087 32.0958C74.5954 31.8038 74.705 31.5646 74.753 31.5646C74.8013 31.5646 74.84 31.467 74.84 31.3476C74.84 31.2288 74.8907 31.0998 74.9523 31.0618C75.0133 31.0238 75.064 30.8934 75.064 30.7722C75.064 30.6509 75.1423 30.5219 75.238 30.4849C75.334 30.4483 75.3853 30.3492 75.353 30.265C75.321 30.1808 75.3353 30.112 75.386 30.112C75.436 30.112 75.5676 29.9104 75.6783 29.6645C75.7896 29.4186 75.9136 29.2175 75.9539 29.2175C75.9949 29.2175 76.0969 29.0414 76.1816 28.8264C76.2659 28.6113 76.3759 28.4352 76.4262 28.4352C76.4762 28.4352 76.5169 28.3596 76.5169 28.2677C76.5169 28.1754 76.5672 28.0998 76.6285 28.0998C76.6902 28.0998 76.7402 28.0247 76.7402 27.9323C76.7402 27.84 76.7822 27.7649 76.8332 27.7649C76.8842 27.7649 76.9978 27.6263 77.0848 27.4575C77.1718 27.2881 77.4571 26.9243 77.7184 26.6491C77.9797 26.3734 78.1934 26.1059 78.1934 26.0544C78.1934 25.9086 78.4937 25.6435 78.571 25.7209C78.609 25.759 78.6403 25.7267 78.6403 25.6488C78.6403 25.5025 79.0993 25.0401 79.5359 24.7471C79.6729 24.6547 79.8436 24.5239 79.9149 24.4565C80.0342 24.3429 81.2204 23.7136 81.8864 23.4105C82.0427 23.3392 82.431 23.2993 82.749 23.3214C83.1516 23.3493 83.3446 23.3176 83.3836 23.216C83.4142 23.1362 83.5539 23.0698 83.6945 23.0688C84.1438 23.0659 84.2971 22.8913 83.9922 22.7306C83.8459 22.6531 83.7005 22.5598 83.6699 22.5227C83.5645 22.3966 82.643 21.953 82.4856 21.953C82.3997 21.953 82.329 21.9025 82.329 21.8409C82.329 21.7798 82.2283 21.7293 82.105 21.7293C81.9824 21.7293 81.8814 21.6787 81.8814 21.6177C81.8814 21.5561 81.7807 21.5055 81.6581 21.5055C81.5351 21.5055 81.4344 21.4555 81.4344 21.3939C81.4344 21.3323 81.3368 21.2823 81.2174 21.2823C81.0981 21.2823 80.9698 21.2318 80.9315 21.1707C80.8935 21.1091 80.7145 21.0585 80.5338 21.0585C80.3278 21.0585 80.2052 21.0008 80.2052 20.9031C80.2052 20.7511 80.0495 20.7083 78.8083 20.5216C78.5007 20.4754 78.1934 20.4023 78.125 20.3599C78.0567 20.3171 77.9811 20.2993 77.9577 20.3205ZM56.2344 21.3886C56.1324 21.5537 56.2887 22.0411 56.4647 22.1089C56.5513 22.1421 56.6237 22.234 56.625 22.3125C56.6263 22.3913 56.802 22.6497 57.0153 22.8865C57.2289 23.1237 57.3813 23.3532 57.3539 23.397C57.3269 23.4408 57.4026 23.5476 57.5222 23.6337C57.6422 23.7198 57.7399 23.8459 57.7399 23.9132C57.7399 23.9811 57.9062 24.2337 58.1099 24.4753C58.3135 24.7168 58.5458 25.0776 58.6261 25.2764C58.7061 25.4756 58.8161 25.6108 58.8705 25.5771C58.9248 25.5434 58.9691 25.5944 58.9691 25.6906C58.9691 25.7864 59.0198 25.8648 59.0814 25.8648C59.1424 25.8648 59.1928 25.9683 59.1928 26.0948C59.1928 26.2214 59.2434 26.294 59.3044 26.256C59.3661 26.218 59.4167 26.2575 59.4167 26.3436C59.4167 26.4302 59.5171 26.5919 59.6401 26.703C59.763 26.8141 59.8637 26.9729 59.8637 27.0557C59.8637 27.1385 59.9137 27.2058 59.9754 27.2058C60.037 27.2058 60.087 27.277 60.087 27.3641C60.087 27.4512 60.1253 27.5392 60.1727 27.5599C60.286 27.609 61.1296 28.7705 61.0523 28.7705C61.0189 28.7705 61.1153 28.9038 61.2659 29.0664C61.4169 29.2291 61.5399 29.4302 61.5399 29.5134C61.5399 29.5967 61.5905 29.6645 61.6515 29.6645C61.7132 29.6645 61.7639 29.7328 61.7639 29.8156C61.7639 29.8989 61.9142 30.125 62.0985 30.3179C62.2835 30.5109 62.4341 30.6947 62.4341 30.7265C62.4341 30.7582 62.7108 31.1854 63.0491 31.6767C63.387 32.1675 63.6637 32.628 63.6637 32.7001C63.6637 32.7723 63.6957 32.7993 63.735 32.7598C63.7743 32.7208 63.8933 32.8508 63.9993 33.0485C64.3436 33.6931 65.0049 33.3719 65.0049 32.5601C65.0049 32.4504 65.0549 32.3292 65.1166 32.2911C65.1779 32.2532 65.2285 32.1247 65.2285 32.0053C65.2285 31.886 65.2785 31.7884 65.3402 31.7884C65.4019 31.7884 65.4519 31.6907 65.4519 31.5713C65.4519 31.452 65.5022 31.3236 65.5635 31.2855C65.6252 31.2475 65.6755 31.1172 65.6755 30.9959C65.6755 30.8746 65.7505 30.7467 65.8425 30.7115C65.9345 30.6759 65.9868 30.611 65.9595 30.5662C65.9321 30.5219 66.0831 30.1399 66.2955 29.7184C66.5074 29.2965 66.6811 28.8855 66.6811 28.8052C66.6811 28.7248 66.7317 28.6589 66.7934 28.6589C66.8544 28.6589 66.9051 28.5858 66.9051 28.4963C66.9051 28.2937 67.5923 26.8281 67.7117 26.7776C67.76 26.7569 67.799 26.6438 67.799 26.5259C67.799 26.4081 67.8493 26.3118 67.9106 26.3118C68.2549 26.3118 67.9773 25.5675 67.2124 24.4358C66.7664 23.7771 66.3828 23.193 66.3594 23.1376C66.3358 23.0828 66.1721 22.8865 65.9961 22.7022C65.8195 22.5174 65.6755 22.311 65.6755 22.2422C65.6755 22.1739 65.5119 21.9295 65.3122 21.6994L64.9489 21.2808L60.6243 21.2813C58.0022 21.2818 56.2744 21.3241 56.2344 21.3886ZM74.1584 35.3966C74.0601 35.5326 73.9114 35.8329 73.8288 36.0636C73.7454 36.2939 73.6378 36.4825 73.5881 36.4825C73.5391 36.4825 73.4991 36.5855 73.4991 36.7115C73.4991 36.8375 73.3985 37.1485 73.2755 37.4031C73.1528 37.6574 73.0522 37.9264 73.0522 38.0007C73.0522 38.0747 72.9732 38.1651 72.8775 38.202C72.7812 38.2394 72.7319 38.3164 72.7672 38.374C72.8029 38.4317 72.7809 38.5107 72.7189 38.549C72.6562 38.5877 72.6052 38.7157 72.6052 38.8333C72.6052 39.1226 72.2172 39.7439 72.1023 39.6392C72.0519 39.5936 72.0413 39.6099 72.0789 39.6766C72.1163 39.7429 72.0239 40.0402 71.8729 40.3382C71.7223 40.6358 71.599 40.9491 71.599 41.0348C71.599 41.1198 71.5543 41.1621 71.5 41.1284C71.4456 41.0948 71.3643 41.1801 71.3197 41.3178C71.2747 41.4554 71.2247 41.6057 71.209 41.6517C71.193 41.6977 71.1737 41.8144 71.166 41.91C71.1583 42.0057 71.112 42.0597 71.0637 42.0294C71.0144 41.9994 70.9667 42.0797 70.9574 42.2083C70.9477 42.3367 70.8804 42.4787 70.8077 42.5233C70.6661 42.611 70.8967 43.3006 71.0673 43.3006C71.114 43.3006 71.152 43.3552 71.152 43.4222C71.152 43.4896 71.2557 43.6782 71.3817 43.8412C71.746 44.3125 72.1229 44.8738 72.5002 45.5077C72.6929 45.8304 72.8829 46.0967 72.9232 46.099C72.9632 46.1013 73.1718 46.378 73.3875 46.7139L73.7788 47.3239L78.192 47.2962C83.0613 47.2652 82.9799 47.2789 82.3887 46.5916C82.2327 46.4103 82.105 46.1997 82.105 46.1227C82.105 46.0457 82.0644 45.983 82.0144 45.983C81.9637 45.983 81.803 45.7687 81.6571 45.5077C81.5111 45.2464 81.3258 44.9664 81.2454 44.8851C81.1651 44.8038 81.0991 44.6981 81.0991 44.6508C81.0991 44.5745 80.9725 44.4018 80.5425 43.8919C80.4798 43.8179 80.4288 43.7042 80.4288 43.6402C80.4288 43.5762 80.3782 43.5239 80.3168 43.5239C80.2555 43.5239 80.2052 43.4612 80.2045 43.3842C80.2042 43.3072 80.0535 43.0836 79.8692 42.8873C79.6856 42.691 79.5342 42.4863 79.5342 42.4333C79.5342 42.38 79.4463 42.239 79.3389 42.1197C79.2313 42.001 79.068 41.7521 78.9756 41.5677C78.8833 41.3838 78.768 41.1824 78.7187 41.1208C78.3244 40.6282 77.6368 39.6516 77.6358 39.5833C77.6351 39.5366 77.4838 39.3403 77.2995 39.1473C77.1145 38.9543 76.9641 38.7383 76.9641 38.6663C76.9641 38.5947 76.8758 38.439 76.7682 38.32C76.4452 37.9621 75.9579 37.2061 75.9579 37.0631C75.9579 36.9898 75.9046 36.9295 75.8396 36.9295C75.7746 36.9295 75.7529 36.8782 75.7919 36.8152C75.8309 36.7518 75.8136 36.7145 75.7533 36.7312C75.6469 36.7612 75.064 35.9979 75.064 35.8276C75.064 35.7366 74.4717 35.1387 74.387 35.145C74.3601 35.147 74.2571 35.26 74.1584 35.3966Z" fill="#EC447C"/>
<path fill-rule="evenodd" clip-rule="evenodd" d="M10.5746 10.1055C10.5746 10.1685 10.258 10.2171 9.84801 10.2171C9.43808 10.2171 9.12148 10.2662 9.12148 10.3293C9.12148 10.3904 8.97039 10.4409 8.78611 10.4409C8.60182 10.4409 8.45074 10.4909 8.45074 10.5525C8.45074 10.6141 8.30015 10.6641 8.11537 10.6641C7.93108 10.6641 7.78 10.7147 7.78 10.7763C7.78 10.8379 7.67944 10.8879 7.55675 10.8879C7.43356 10.8879 7.33301 10.9384 7.33301 10.9995C7.33301 11.0611 7.21272 11.1116 7.0655 11.1116C6.91874 11.1116 6.76812 11.1901 6.73109 11.2863C6.69453 11.3825 6.61754 11.4321 6.56074 11.3969C6.50351 11.3618 6.35773 11.459 6.23647 11.6135C6.11522 11.7674 5.95836 11.894 5.8881 11.894C5.69949 11.894 4.98592 12.6417 4.98592 12.8399C4.98592 12.9343 4.90749 13.0117 4.81173 13.0117C4.71601 13.0117 4.66885 13.0618 4.70684 13.1233C4.74487 13.1849 4.71551 13.235 4.64192 13.235C4.46437 13.235 4.21176 13.5761 4.20742 13.822C4.20549 13.9293 4.15353 14.0173 4.09193 14.0173C4.03034 14.0173 3.98031 14.1179 3.98031 14.2411C3.98031 14.3638 3.92978 14.4643 3.86819 14.4643C3.80709 14.4643 3.75656 14.5649 3.75656 14.6881C3.75656 14.8108 3.70654 14.9113 3.64494 14.9113C3.58335 14.9113 3.53332 15.0624 3.53332 15.2467C3.53332 15.4315 3.48279 15.5821 3.42119 15.5821C3.35963 15.5821 3.30958 15.8087 3.30958 16.0849C3.30958 16.3615 3.25906 16.5882 3.19795 16.5882C3.13396 16.5882 3.08584 16.9235 3.08584 17.3705C3.08584 17.8175 3.0382 18.1529 2.97421 18.1529C2.90492 18.1529 2.86259 18.749 2.86259 19.7176V21.2823H1.43739H0.012207V24.4118V27.5412H1.43739H2.86259V37.4324V47.3242H6.60647H10.3508V37.4324V27.5412H13.257H16.1627V24.4118V21.2823H13.257H10.3508V20.3321C10.3508 19.7734 10.397 19.3822 10.4625 19.3822C10.524 19.3822 10.5746 19.2061 10.5746 18.991C10.5746 18.776 10.6246 18.5999 10.6862 18.5999C10.7478 18.5999 10.7978 18.5229 10.7978 18.4286C10.7978 18.2097 11.5201 17.4822 11.7375 17.4822C11.8285 17.4822 11.9334 17.4321 11.9714 17.3705C12.0094 17.3089 12.1884 17.2584 12.3693 17.2584C12.5502 17.2584 12.6979 17.2084 12.6979 17.1468C12.6979 17.077 13.3499 17.0352 14.4306 17.0352H16.1627V13.5145V9.9939H13.3687C11.5802 9.9939 10.5746 10.0338 10.5746 10.1055ZM19.5159 28.6589V47.3242H23.2598H27.0042V28.6589V9.9939H23.2598H19.5159V28.6589ZM88.2527 10.1055C88.2527 10.1671 88.1014 10.2171 87.9174 10.2171C87.7331 10.2171 87.5817 10.2677 87.5817 10.3293C87.5817 10.3904 87.4814 10.4409 87.3588 10.4409C87.2355 10.4409 87.1348 10.4909 87.1348 10.5525C87.1348 10.6141 87.0438 10.6641 86.9331 10.6641C86.7075 10.6641 85.9056 11.3522 85.9056 11.5456C85.9056 11.6144 85.8549 11.6702 85.7939 11.6702C85.7322 11.6702 85.6819 11.7708 85.6819 11.894C85.6819 12.0167 85.6316 12.1172 85.5703 12.1172C85.5086 12.1172 85.4586 12.2683 85.4586 12.4526C85.4586 12.6369 85.4079 12.788 85.3463 12.788C85.2779 12.788 85.2346 13.3283 85.2346 14.1852C85.2346 15.0417 85.2779 15.5821 85.3463 15.5821C85.4079 15.5821 85.4586 15.7331 85.4586 15.9174C85.4586 16.1017 85.5086 16.2528 85.5703 16.2528C85.6316 16.2528 85.6819 16.3283 85.6819 16.4202C85.6819 16.5126 85.7322 16.5882 85.7939 16.5882C85.8549 16.5882 85.9056 16.6565 85.9056 16.7407C85.9056 16.9678 86.4632 17.4822 86.7095 17.4822C86.8278 17.4822 86.8935 17.5327 86.8555 17.5938C86.8171 17.6554 86.8648 17.7059 86.9608 17.7059C87.0565 17.7059 87.1348 17.7559 87.1348 17.8175C87.1348 17.8791 87.2355 17.9291 87.3588 17.9291C87.4814 17.9291 87.5817 17.9797 87.5817 18.0413C87.5817 18.1105 88.1967 18.1529 89.2023 18.1529C90.2085 18.1529 90.8228 18.1105 90.8228 18.0413C90.8228 17.9797 90.9741 17.9291 91.1584 17.9291C91.3431 17.9291 91.4937 17.8791 91.4937 17.8175C91.4937 17.7559 91.5694 17.7059 91.6617 17.7059C91.7534 17.7059 91.829 17.6679 91.829 17.6212C91.829 17.5745 91.98 17.4701 92.1643 17.3883C92.3486 17.3065 92.4996 17.1545 92.4996 17.0506C92.4996 16.9461 92.6003 16.7883 92.7229 16.6998C92.8463 16.6113 92.9469 16.4241 92.9469 16.2841C92.9469 16.144 92.9972 16.029 93.0582 16.029C93.1199 16.029 93.1706 15.8785 93.1706 15.6937C93.1706 15.5094 93.2206 15.3588 93.2822 15.3588C93.3495 15.3588 93.3939 14.8931 93.3939 14.1852C93.3939 13.477 93.3495 13.0117 93.2822 13.0117C93.2206 13.0117 93.1706 12.8606 93.1706 12.6764C93.1706 12.4916 93.1199 12.341 93.0582 12.341C92.9972 12.341 92.9469 12.2404 92.9469 12.1172C92.9469 11.9945 92.8963 11.894 92.8353 11.894C92.7736 11.894 92.7229 11.7982 92.7229 11.6813C92.7229 11.4061 91.9817 10.6641 91.7064 10.6641C91.5894 10.6641 91.4937 10.6141 91.4937 10.5525C91.4937 10.4909 91.3931 10.4409 91.2704 10.4409C91.1471 10.4409 91.0468 10.3904 91.0468 10.3293C91.0468 10.2677 90.8954 10.2171 90.7115 10.2171C90.5271 10.2171 90.3758 10.1671 90.3758 10.1055C90.3758 10.0387 89.9479 9.9939 89.3146 9.9939C88.681 9.9939 88.2527 10.0387 88.2527 10.1055ZM114.741 10.1055C114.741 10.1671 114.591 10.2171 114.406 10.2171C114.222 10.2171 114.071 10.2677 114.071 10.3293C114.071 10.3904 113.97 10.4409 113.847 10.4409C113.724 10.4409 113.623 10.4909 113.623 10.5525C113.623 10.6141 113.546 10.6641 113.451 10.6641C113.226 10.6641 112.171 11.7193 112.171 11.9445C112.171 12.0393 112.121 12.1172 112.059 12.1172C111.997 12.1172 111.947 12.2178 111.947 12.341C111.947 12.4637 111.897 12.5642 111.836 12.5642C111.766 12.5642 111.724 13.1792 111.724 14.1852C111.724 15.1909 111.766 15.8058 111.836 15.8058C111.897 15.8058 111.947 15.8732 111.947 15.9559C111.947 16.4087 113.068 17.7059 113.459 17.7059C113.549 17.7059 113.623 17.7559 113.623 17.8175C113.623 17.8791 113.724 17.9291 113.847 17.9291C113.97 17.9291 114.071 17.9797 114.071 18.0413C114.071 18.1105 114.686 18.1529 115.692 18.1529C116.697 18.1529 117.312 18.1105 117.312 18.0413C117.312 17.9797 117.438 17.9291 117.591 17.9291C117.745 17.9291 117.871 17.8791 117.871 17.8175C117.871 17.7559 117.951 17.7059 118.048 17.7059C118.292 17.7059 119.436 16.4953 119.436 16.2379C119.436 16.1229 119.486 16.029 119.548 16.029C119.608 16.029 119.659 15.8279 119.659 15.5821C119.659 15.2592 119.706 15.1351 119.826 15.1351C119.962 15.1351 119.994 14.9609 119.994 14.2372C119.994 13.5424 119.956 13.3254 119.826 13.2754C119.717 13.2335 119.659 13.0598 119.659 12.7759C119.659 12.5368 119.608 12.341 119.548 12.341C119.486 12.341 119.436 12.2635 119.436 12.1687C119.436 12.0739 119.335 11.8882 119.212 11.7564C119.089 11.6245 118.989 11.447 118.989 11.3618C118.989 11.1641 118.714 10.8879 118.518 10.8879C118.435 10.8879 118.295 10.7873 118.206 10.6641C118.118 10.5414 117.958 10.4409 117.853 10.4409C117.747 10.4409 117.629 10.3904 117.591 10.3293C117.554 10.2677 117.324 10.2171 117.082 10.2171C116.84 10.2171 116.641 10.1671 116.641 10.1055C116.641 10.0396 116.25 9.9939 115.692 9.9939C115.133 9.9939 114.741 10.0396 114.741 10.1055ZM98.6331 14.2969C98.6254 14.3277 98.6061 14.4032 98.5911 14.4643C98.5757 14.5259 98.5567 16.0849 98.5488 17.9291L98.5351 21.2823H97.0259H95.5177V24.4118V27.5412H97.0259H98.5351L98.5561 35.5049C98.5677 39.8845 98.5801 43.6392 98.5841 43.8492C98.5877 44.0585 98.6537 44.2515 98.7307 44.2775C98.8107 44.3048 98.8704 44.5121 98.8704 44.7627C98.8704 45.0034 98.9207 45.2 98.9824 45.2C99.0434 45.2 99.094 45.2797 99.094 45.3767C99.094 45.474 99.295 45.7467 99.541 45.983C99.787 46.2193 99.988 46.4576 99.988 46.5122C99.988 46.6899 100.893 47.1002 101.284 47.1002C101.493 47.1002 101.664 47.1509 101.664 47.2125C101.664 47.2845 102.987 47.3242 105.409 47.3242H109.153V44.1388V40.9534H108.091C107.458 40.9534 107.029 40.9081 107.029 40.8414C107.029 40.7801 106.952 40.7298 106.857 40.7298C106.762 40.7298 106.561 40.6061 106.41 40.4555L106.135 40.1812V33.8611V27.5412H107.644H109.153V24.4118V21.2823H107.644H106.135V17.7617V14.2411H102.391C100.332 14.2411 98.6407 14.2661 98.6331 14.2969ZM41.9812 20.3884C41.9812 20.4533 41.6116 20.5 41.0963 20.5C40.5673 20.5 40.1951 20.5481 40.1714 20.6193C40.1494 20.6852 39.9354 20.7497 39.6951 20.7637C39.4551 20.7771 39.2381 20.8488 39.2131 20.9234C39.1881 20.9985 38.9738 21.0586 38.7305 21.0586C38.4899 21.0586 38.2926 21.1091 38.2926 21.1707C38.2926 21.2318 38.1919 21.2823 38.0692 21.2823C37.9463 21.2823 37.8456 21.3324 37.8456 21.394C37.8456 21.4556 37.6696 21.5056 37.4543 21.5056C37.2393 21.5056 37.0633 21.5561 37.0633 21.6177C37.0633 21.6788 36.9627 21.7293 36.8394 21.7293C36.7167 21.7293 36.6164 21.7799 36.6164 21.841C36.6164 21.9025 36.5157 21.9531 36.3924 21.9531C36.2697 21.9531 36.1691 22.0031 36.1691 22.0647C36.1691 22.1263 36.0798 22.1763 35.9701 22.1763C35.8608 22.1763 35.6988 22.2769 35.6101 22.4001C35.5215 22.5228 35.3725 22.6252 35.2782 22.6271C35.0529 22.6315 34.7162 22.8923 34.7162 23.0616C34.7162 23.1353 34.6656 23.1646 34.6046 23.1266C34.5429 23.0886 34.4926 23.1357 34.4926 23.2315C34.4926 23.3273 34.4172 23.4057 34.3259 23.4057C34.1656 23.4057 32.5923 24.8766 32.5923 25.0262C32.5923 25.0657 32.5298 25.1643 32.4528 25.2456C32.1117 25.605 31.9221 25.8779 31.9221 26.0087C31.9221 26.0867 31.8215 26.2233 31.6983 26.3119C31.5756 26.4004 31.4751 26.5626 31.4751 26.6718C31.4751 26.781 31.4245 26.8705 31.363 26.8705C31.3019 26.8705 31.2513 26.9711 31.2513 27.0942C31.2513 27.2169 31.2008 27.3175 31.1397 27.3175C31.0781 27.3175 31.0276 27.4151 31.0276 27.5345C31.0276 27.6538 30.9776 27.7828 30.916 27.8208C30.8544 27.8588 30.8043 27.9656 30.8043 28.059C30.8043 28.1518 30.7307 28.301 30.6412 28.3905C30.5517 28.4805 30.5065 28.6272 30.5412 28.7172C30.5763 28.8086 30.5253 28.9106 30.4247 28.9491C30.3184 28.99 30.2453 29.1473 30.2453 29.335C30.2453 29.5092 30.1952 29.6828 30.1336 29.7209C30.072 29.7589 30.022 29.9879 30.022 30.2304C30.022 30.4724 29.9715 30.6707 29.9104 30.6707C29.8478 30.6707 29.7983 30.9685 29.7983 31.3414C29.7983 31.7138 29.7487 32.0121 29.6866 32.0121C29.6159 32.0121 29.575 32.8316 29.575 34.247C29.575 35.6632 29.6159 36.4825 29.6866 36.4825C29.7487 36.4825 29.7983 36.7785 29.7983 37.1464C29.7983 37.5117 29.8488 37.8417 29.9104 37.8797C29.9715 37.918 30.022 38.147 30.022 38.3893C30.022 38.6313 30.072 38.8296 30.1336 38.8296C30.1952 38.8296 30.2453 38.9749 30.2453 39.1529C30.2453 39.3359 30.3174 39.5042 30.4112 39.5399C30.5051 39.5759 30.5484 39.6779 30.5113 39.7745C30.4728 39.8742 30.5205 39.9738 30.6249 40.0142C30.7322 40.0555 30.8043 40.2132 30.8043 40.4065C30.8043 40.5845 30.8544 40.7298 30.916 40.7298C30.9776 40.7298 31.0276 40.8304 31.0276 40.9534C31.0276 41.0761 31.0781 41.1767 31.1397 41.1767C31.2008 41.1767 31.2513 41.2664 31.2513 41.3754C31.2513 41.485 31.3519 41.6467 31.4751 41.736C31.5978 41.8243 31.6983 42.0003 31.6983 42.127C31.6983 42.2536 31.7989 42.4293 31.9221 42.5183C32.0448 42.6066 32.1454 42.7453 32.1454 42.8256C32.1454 42.9699 32.856 43.7475 32.9878 43.7475C33.0749 43.7475 33.3747 44.0465 33.3747 44.1325C33.3747 44.2801 34.8359 45.6477 34.9932 45.6477C35.0865 45.6477 35.1632 45.6977 35.1632 45.7593C35.1632 45.821 35.2388 45.871 35.3305 45.871C35.4228 45.871 35.4985 45.9213 35.4985 45.983C35.4985 46.0443 35.5991 46.0946 35.7218 46.0946C35.8451 46.0946 35.9454 46.1446 35.9454 46.2063C35.9454 46.2679 36.0461 46.3179 36.1691 46.3179C36.2934 46.3179 36.3924 46.3926 36.3924 46.4859C36.3924 46.5786 36.4921 46.6532 36.6164 46.6532C36.739 46.6532 36.8394 46.7039 36.8394 46.7652C36.8394 46.8266 36.94 46.8769 37.0633 46.8769C37.186 46.8769 37.287 46.9272 37.287 46.9885C37.287 47.0502 37.4126 47.1002 37.566 47.1002C37.7199 47.1002 37.8456 47.1509 37.8456 47.2125C37.8456 47.2735 37.9966 47.3242 38.1809 47.3242C38.3652 47.3242 38.5162 47.3742 38.5162 47.4355C38.5162 47.4972 38.6669 47.5478 38.8518 47.5478C39.0362 47.5478 39.1865 47.5978 39.1865 47.6595C39.1865 47.7208 39.4131 47.7711 39.6898 47.7711C39.9664 47.7711 40.1927 47.8215 40.1927 47.8828C40.1927 47.9448 40.4907 47.9948 40.8633 47.9948C41.236 47.9948 41.5336 48.0444 41.5336 48.1064C41.5336 48.1771 42.3535 48.2181 43.7691 48.2181C45.1853 48.2181 46.0045 48.1771 46.0045 48.1064C46.0045 48.0448 46.2528 47.9948 46.5568 47.9948C46.8604 47.9948 47.1401 47.9441 47.1781 47.8828C47.2161 47.8215 47.4457 47.7711 47.6877 47.7711C47.9303 47.7711 48.128 47.7208 48.128 47.6595C48.128 47.5978 48.279 47.5478 48.4633 47.5478C48.6479 47.5478 48.7986 47.4972 48.7986 47.4355C48.7986 47.3742 48.9496 47.3242 49.1339 47.3242C49.3182 47.3242 49.4695 47.2735 49.4695 47.2125C49.4695 47.1509 49.5429 47.1002 49.6329 47.1002C49.8578 47.1002 50.8258 46.5526 51.0471 46.3006C51.1467 46.1869 51.3104 46.0946 51.4104 46.0946C51.511 46.0946 51.5927 46.0443 51.5927 45.983C51.5927 45.9213 51.6683 45.871 51.7607 45.871C51.8527 45.871 51.928 45.821 51.928 45.7593C51.928 45.6977 52.0046 45.6477 52.098 45.6477C52.2553 45.6477 53.7165 44.2801 53.7165 44.1325C53.7165 44.0465 54.0165 43.7475 54.1035 43.7475C54.2194 43.7475 54.946 42.9786 54.946 42.8559C54.946 42.7919 55.097 42.5816 55.2813 42.3886C55.4657 42.196 55.6166 41.9447 55.6166 41.8307C55.6166 41.717 55.6666 41.6237 55.7283 41.6237C55.79 41.6237 55.84 41.5344 55.84 41.425C55.84 41.3157 55.9406 41.1537 56.0636 41.0651C56.5452 40.7178 56.2699 39.8359 55.6806 39.8359C55.5223 39.8359 55.393 39.7875 55.393 39.7289C55.393 39.6702 55.2044 39.5885 54.9737 39.5465C54.7434 39.5052 54.5048 39.4372 54.4431 39.3959C54.3814 39.3546 54.1554 39.3066 53.9398 39.2886C53.7248 39.2709 53.5322 39.2102 53.5115 39.1549C53.4908 39.0993 53.3279 39.0533 53.1482 39.0533C52.9689 39.0533 52.8226 39.0029 52.8226 38.9413C52.8226 38.8803 52.6243 38.8296 52.3819 38.8296C52.14 38.8296 51.9103 38.7796 51.8723 38.718C51.8343 38.6563 51.6053 38.6063 51.3627 38.6063C51.1207 38.6063 50.9224 38.556 50.9224 38.4943C50.9224 38.4326 50.7714 38.3827 50.5871 38.3827C50.4028 38.3827 50.2518 38.332 50.2518 38.271C50.2518 38.0477 49.6832 38.166 49.3569 38.4566C49.1726 38.621 49.0222 38.7966 49.0222 38.8469C49.0222 39.0606 47.8617 40.2828 47.6587 40.2828C47.5751 40.2828 47.4347 40.3835 47.3457 40.5061C47.2571 40.6291 47.0698 40.7298 46.9298 40.7298C46.7898 40.7298 46.6755 40.7801 46.6755 40.8414C46.6755 40.9031 46.5241 40.9534 46.3398 40.9534C46.1555 40.9534 46.0045 41.0034 46.0045 41.0651C46.0045 41.1267 45.8535 41.1767 45.6692 41.1767C45.4849 41.1767 45.3339 41.2274 45.3339 41.2884C45.3339 41.3577 44.7376 41.4004 43.7691 41.4004C42.8005 41.4004 42.2045 41.3577 42.2045 41.2884C42.2045 41.2274 42.0539 41.1767 41.8689 41.1767C41.6849 41.1767 41.5336 41.1267 41.5336 41.0651C41.5336 41.0034 41.3943 40.9534 41.2233 40.9534C41.041 40.9534 40.846 40.8611 40.7513 40.7298C40.6627 40.6065 40.5104 40.5061 40.4127 40.5061C40.315 40.5061 40.1267 40.4055 39.9951 40.2828C39.8631 40.1595 39.6958 40.0592 39.6234 40.0592C39.4668 40.0592 38.9638 39.4965 38.9635 39.3212C38.9635 39.2536 38.8122 39.0403 38.6279 38.8476C38.4435 38.6546 38.2926 38.4206 38.2926 38.3277C38.2926 38.235 38.2426 38.159 38.1809 38.159C38.1192 38.159 38.0692 38.0583 38.0692 37.9357C38.0692 37.8124 38.0189 37.712 37.9573 37.712C37.8956 37.712 37.8456 37.5927 37.8456 37.4464C37.8456 37.3001 37.7699 37.1181 37.6783 37.0411C37.5856 36.9648 37.5103 36.7578 37.5103 36.5808V36.2588H47.4017C57.2185 36.2588 57.2932 36.2575 57.2932 36.0355C57.2932 35.9125 57.3435 35.8119 57.4045 35.8119C57.4728 35.8119 57.5168 35.3089 57.5168 34.5267C57.5168 33.7444 57.4728 33.2415 57.4045 33.2415C57.3392 33.2415 57.2932 32.8503 57.2932 32.2912C57.2932 31.7326 57.2468 31.3414 57.1815 31.3414C57.1199 31.3414 57.0699 31.1403 57.0699 30.8944C57.0699 30.6486 57.0192 30.4469 56.9575 30.4469C56.8962 30.4469 56.8459 30.2492 56.8459 30.0067C56.8459 29.7647 56.7955 29.5352 56.7346 29.4971C56.6729 29.4591 56.6222 29.334 56.6222 29.219C56.6222 29.104 56.5472 28.9346 56.4549 28.8423C56.3626 28.7504 56.2869 28.5959 56.2869 28.4992C56.2869 28.4025 56.2369 28.3236 56.1753 28.3236C56.1136 28.3236 56.0636 28.1951 56.0636 28.0378C56.0636 27.8751 56.0149 27.7813 55.952 27.8208C55.8886 27.8597 55.84 27.7659 55.84 27.6038C55.84 27.4464 55.79 27.3175 55.7283 27.3175C55.6666 27.3175 55.6166 27.2169 55.6166 27.0942C55.6166 26.9711 55.566 26.8705 55.5047 26.8705C55.4433 26.8705 55.393 26.781 55.393 26.6718C55.393 26.5626 55.2923 26.4004 55.1697 26.3119C55.0464 26.2233 54.946 26.0828 54.946 25.9996C54.946 25.9169 54.883 25.785 54.8064 25.7075C54.7294 25.6301 54.5657 25.4261 54.4431 25.2548C54.0795 24.7481 52.9572 23.6294 52.8129 23.6294C52.7399 23.6294 52.5296 23.4533 52.3456 23.2382C52.162 23.0231 51.9287 22.8471 51.827 22.8471C51.7257 22.8471 51.5697 22.7465 51.481 22.6233C51.3927 22.5006 51.2304 22.4001 51.1211 22.4001C51.0121 22.4001 50.9224 22.3495 50.9224 22.2879C50.9224 22.2269 50.8331 22.1763 50.7234 22.1763C50.6141 22.1763 50.4518 22.0758 50.3635 21.9531C50.2691 21.8217 50.0742 21.7293 49.8918 21.7293C49.7212 21.7293 49.5809 21.6788 49.5809 21.6177C49.5809 21.5561 49.4555 21.5056 49.3016 21.5056C49.1479 21.5056 49.0222 21.4556 49.0222 21.394C49.0222 21.3324 48.8713 21.2823 48.6869 21.2823C48.5026 21.2823 48.3516 21.2318 48.3516 21.1707C48.3516 21.1091 48.205 21.0586 48.026 21.0586C47.8464 21.0586 47.6804 21.0013 47.657 20.9306C47.6337 20.8603 47.3654 20.7809 47.0608 20.754C46.7568 20.7271 46.4905 20.6592 46.4705 20.6025C46.4498 20.5462 46.0099 20.5 45.4922 20.5C44.94 20.5 44.5517 20.4538 44.5517 20.3884C44.5517 20.32 44.0487 20.2762 43.2664 20.2762C42.4838 20.2762 41.9812 20.32 41.9812 20.3884ZM85.4586 34.303V47.3242H89.2023H92.9469V34.303V21.2823H89.2023H85.4586V34.303ZM111.947 34.303V47.3242H115.692H119.436V34.303V21.2823H115.692H111.947V34.303ZM45.1106 26.9826C45.1106 27.0437 45.2613 27.0942 45.4459 27.0942C45.6302 27.0942 45.7809 27.1443 45.7809 27.2059C45.7809 27.2675 45.9209 27.3175 46.0915 27.3175C46.2742 27.3175 46.4688 27.4099 46.5631 27.5412C46.6521 27.6644 46.8394 27.7649 46.9794 27.7649C47.1194 27.7649 47.2341 27.8174 47.2341 27.8819C47.2341 27.9464 47.586 28.3462 48.0163 28.7706C48.4463 29.195 48.7986 29.6203 48.7986 29.7151C48.7986 29.8104 48.8493 29.8883 48.9103 29.8883C48.9719 29.8883 49.0222 29.9826 49.0222 30.0981C49.0222 30.2136 49.0946 30.368 49.1832 30.4416C49.2716 30.5153 49.3192 30.6404 49.2886 30.7202C49.2582 30.8001 49.3112 30.944 49.4069 31.0397C49.5025 31.1355 49.5809 31.3429 49.5809 31.5011V31.7884H43.5457H37.5103V31.3414C37.5103 31.0955 37.557 30.8944 37.6136 30.8944C37.7329 30.8944 38.0692 30.2627 38.0692 30.0389C38.0692 29.9562 38.1192 29.8883 38.1809 29.8883C38.2426 29.8883 38.2926 29.7988 38.2926 29.6896C38.2926 29.5799 38.3932 29.4182 38.5162 29.3297C38.6392 29.2407 38.7395 29.1002 38.7395 29.0165C38.7395 28.9332 38.9392 28.6801 39.1831 28.4545C39.8341 27.852 39.9474 27.7649 40.0764 27.7649C40.1404 27.7649 40.1927 27.7145 40.1927 27.6529C40.1927 27.5917 40.2934 27.5412 40.4164 27.5412C40.539 27.5412 40.6397 27.4907 40.6397 27.4296C40.6397 27.368 40.7403 27.3175 40.8633 27.3175C40.986 27.3175 41.0866 27.2675 41.0866 27.2059C41.0866 27.1443 41.2376 27.0942 41.4219 27.0942C41.6063 27.0942 41.7572 27.0437 41.7572 26.9826C41.7572 26.9128 42.3905 26.8705 43.4338 26.8705C44.477 26.8705 45.1106 26.9128 45.1106 26.9826Z" fill="#343C3C"/>
<path fill-rule="evenodd" clip-rule="evenodd" d="M75.881 20.3485C75.959 20.426 77.8792 20.4044 77.9588 20.325C77.9855 20.298 77.5125 20.2764 76.9083 20.2764C76.3036 20.2764 75.8417 20.3086 75.881 20.3485ZM56.0635 21.5553C56.0635 21.7054 56.1065 21.8546 56.1595 21.8873C56.2118 21.9195 56.2495 21.7968 56.2431 21.6145C56.2291 21.218 56.0635 21.1632 56.0635 21.5553ZM71.6551 22.2169C71.5324 22.355 71.4164 22.5402 71.3981 22.6292C71.3798 22.7182 71.4927 22.6451 71.6497 22.4666C71.806 22.2881 71.9347 22.0995 71.9347 22.0475C71.9347 21.9166 71.9097 21.9315 71.6551 22.2169ZM65.7873 22.4194C65.7873 22.5301 66.2362 22.9944 66.2905 22.9401C66.3205 22.9097 66.2199 22.7673 66.0666 22.623C65.9129 22.4791 65.7873 22.3872 65.7873 22.4194ZM82.1904 23.3731C82.3294 23.4 82.5307 23.3991 82.6374 23.3712C82.7444 23.3433 82.6307 23.3211 82.3848 23.3226C82.1391 23.3235 82.0514 23.3466 82.1904 23.3731ZM69.8666 24.6761C69.5533 25.0408 69.4576 25.1938 69.5456 25.1909C69.6549 25.1866 70.0782 24.6409 70.0175 24.5832C69.9959 24.563 69.9282 24.6048 69.8666 24.6761ZM58.2246 24.7819C58.2246 24.8603 58.2913 24.9874 58.3736 25.0639C58.4929 25.1755 58.5223 25.1717 58.5223 25.0446C58.5223 24.9575 58.4556 24.8305 58.3736 24.7627C58.2626 24.6708 58.2246 24.6756 58.2246 24.7819ZM60.4427 28.0442C60.5127 28.1981 60.6067 28.3237 60.6511 28.3237C60.6954 28.3237 60.7584 28.4243 60.79 28.5474C60.8224 28.6702 60.907 28.7707 60.9777 28.7707C61.049 28.7707 60.9444 28.5446 60.7457 28.2679C60.3364 27.6977 60.2588 27.6405 60.4427 28.0442ZM62.8812 31.5518C62.8812 31.6293 62.9568 31.7683 63.0492 31.8602C63.2632 32.0748 63.2608 31.9122 63.0458 31.6273C62.9532 31.5056 62.8812 31.4724 62.8812 31.5518ZM65.3573 33.8994C65.2743 33.9518 65.224 34.0761 65.2456 34.1754C65.275 34.3117 65.3163 34.2881 65.4136 34.0784C65.4846 33.9254 65.5346 33.8011 65.525 33.8021C65.516 33.8031 65.44 33.8468 65.3573 33.8994ZM72.9753 35.6726C72.9373 35.7803 72.8853 35.9059 72.861 35.9519C72.836 35.9976 72.8626 36.0356 72.9209 36.0356C72.9786 36.0356 73.0499 35.9102 73.0796 35.7563C73.1409 35.4346 73.0783 35.3843 72.9753 35.6726ZM75.4144 36.4275C75.7414 36.9821 75.8883 37.0298 75.599 36.4875C75.4664 36.2389 75.3187 36.0356 75.2704 36.0356C75.2224 36.0356 75.2874 36.2119 75.4144 36.4275ZM63.1402 38.802C63.1018 38.9096 63.0502 39.0353 63.0252 39.0813C63.0005 39.1276 63.0208 39.1646 63.0702 39.1643C63.1202 39.1636 63.2188 39.0383 63.2902 38.8846C63.3621 38.7287 63.3728 38.6067 63.3141 38.6067C63.2568 38.6067 63.1785 38.694 63.1402 38.802ZM72.5087 38.7953C72.5 38.93 72.4433 39.0713 72.3817 39.1093C72.32 39.1473 72.27 39.2619 72.27 39.3643C72.27 39.5103 72.3073 39.4966 72.445 39.2999C72.5413 39.1623 72.5986 38.9376 72.572 38.8L72.524 38.5503L72.5087 38.7953ZM77.8615 39.9115C77.8678 40.0689 78.1935 40.4465 78.1935 40.2965C78.1935 40.2185 78.1178 40.0799 78.0261 39.9875C77.9338 39.8952 77.8595 39.8609 77.8615 39.9115ZM79.995 43.0213C80.0946 43.1439 80.2036 43.3199 80.2379 43.4122C80.2899 43.5549 80.3009 43.5529 80.3083 43.4019C80.3129 43.3036 80.2036 43.1276 80.0656 43.0106C79.8163 42.7993 79.8153 42.7993 79.995 43.0213ZM59.3325 43.6915C59.1252 43.9269 59.1632 43.9915 59.4168 43.8332C59.5395 43.7569 59.6402 43.6559 59.6402 43.6092C59.6402 43.4759 59.4862 43.5172 59.3325 43.6915ZM68.4897 44.5445C68.3467 44.7204 68.2977 44.8384 68.3804 44.8068C68.531 44.7491 68.852 44.3111 68.785 44.2545C68.7653 44.2375 68.6323 44.3685 68.4897 44.5445ZM72.0524 44.9211C72.054 45.0691 72.3653 45.4774 72.4287 45.4144C72.4557 45.3871 72.382 45.2397 72.2647 45.0871C72.1473 44.9341 72.0517 44.8598 72.0524 44.9211Z" fill="#F0405C"/>
<path fill-rule="evenodd" clip-rule="evenodd" d="M0.00538175 24.4676C0.00538175 26.066 0.0207781 26.704 0.0400243 25.8861C0.0592705 25.0681 0.0592705 23.7603 0.0400243 22.9804C0.0207781 22.1999 0.00490059 22.8692 0.00538175 24.4676Z" fill="#64405C"/>
</g>
<defs>
<clipPath id="clip0_7_767">
<rect width="119.989" height="57.3281" fill="white" transform="translate(0.00537109 0.328125)"/>
</clipPath>
</defs>
</svg>
