<svg width="56" height="61" viewBox="0 0 56 61" fill="none" xmlns="http://www.w3.org/2000/svg">
<path d="M44.8087 17.4898C43.4841 17.4898 42.1974 17.7361 40.9687 18.222C40.4288 15.5382 38.1903 13.521 35.5198 13.521H35.5115C35.266 6.36414 29.7391 0.62207 22.9794 0.62207C16.0646 0.62207 10.44 6.63074 10.44 14.0165C10.44 14.564 10.4715 15.1119 10.5337 15.6568C4.67425 16.5746 0.222168 21.976 0.222168 28.4037C0.222168 35.5159 5.63955 41.3026 12.2977 41.3026H19.7288V46.2637H15.0844V48.2482H20.6577C21.1703 48.2482 21.5866 47.8034 21.5866 47.2559V41.3026H23.4444V43.287H25.3022V41.3026H27.1599V54.2015H25.3022V56.1859H28.0888C28.6014 56.1859 29.0177 55.7412 29.0177 55.1937V41.3026H30.8755V45.2715H32.7333V41.3026H34.5911V51.2248C34.5911 51.7723 35.0074 52.217 35.5199 52.217H40.1644V50.2326H36.4488V41.3026H38.3066V47.2559C38.3066 47.8034 38.723 48.2482 39.2355 48.2482H44.8088V46.2637H40.1644V41.3026H44.8088C50.9552 41.3026 55.9555 35.9614 55.9555 29.3959C55.9555 22.8305 50.9552 17.4893 44.8088 17.4893L44.8087 17.4898ZM44.8087 39.3187H12.2975C6.6637 39.3187 2.07977 34.4223 2.07977 28.4043C2.07977 22.6564 6.29045 17.877 11.666 17.5257C11.9356 17.508 12.1835 17.3671 12.3469 17.1385C12.5103 16.9104 12.5737 16.6167 12.5198 16.335C12.3718 15.574 12.2976 14.7939 12.2976 14.0171C12.2976 7.72536 17.0897 2.60708 22.9793 2.60708C28.8688 2.60708 33.6609 7.72593 33.6609 14.0171C33.6609 14.1274 33.6535 14.2354 33.646 14.3444L33.6332 14.5734C33.6191 14.8799 33.7402 15.1767 33.9583 15.376C34.1776 15.5754 34.4708 15.656 34.7516 15.5922C37.1119 15.0655 39.2343 17.0199 39.2326 19.4547C39.2289 19.4866 39.2148 19.6164 39.214 19.6483C39.199 20.0013 39.3616 20.338 39.6403 20.5293C39.9189 20.7198 40.2727 20.7389 40.5675 20.5758C41.8974 19.8454 43.3243 19.4742 44.8076 19.4742C49.9293 19.4742 54.0965 23.9255 54.0965 29.3964C54.0965 34.8674 49.9293 39.3187 44.8076 39.3187L44.8087 39.3187Z" fill="#333333"/>
<path d="M25.6119 6.06587C24.7676 5.74606 23.8823 5.5835 22.9795 5.5835V7.56794C23.6695 7.56794 24.3467 7.69197 24.9915 7.93604L25.6119 6.06587Z" fill="#109CDD"/>
<path d="M20.9679 7.93606L20.3463 6.06592C17.1993 7.2584 15.0845 10.4534 15.0845 14.0174H16.9422C16.9422 11.2919 18.5603 8.84811 20.968 7.93606H20.9679Z" fill="#109CDD"/>
<path d="M32.0753 24.2451L30.4183 23.5187C30.3059 23.1683 30.1749 22.829 30.0264 22.5025L30.7165 20.7404C30.8454 20.4109 30.7982 20.033 30.5937 19.75C30.0642 19.0196 29.4475 18.3609 28.7608 17.7921C28.4962 17.5737 28.1421 17.5232 27.8336 17.661L26.184 18.398C25.8775 18.2395 25.5599 18.0995 25.2327 17.9795L24.5526 16.2094C24.4253 15.879 24.1421 15.6469 23.8103 15.6013C22.8416 15.4702 22.1914 15.4702 21.2223 15.6013C20.8905 15.646 20.6065 15.8781 20.48 16.2094L19.7999 17.9795C19.4732 18.0995 19.1551 18.2395 18.8487 18.398L17.1991 17.661C16.8918 17.5241 16.536 17.5737 16.2718 17.7921C15.588 18.3577 14.9714 19.0155 14.4389 19.7486C14.2336 20.0312 14.1872 20.4095 14.3161 20.74L15.0062 22.502C14.8577 22.8294 14.7267 23.1687 14.6143 23.5182L12.9573 24.2446C12.6479 24.3806 12.4306 24.6831 12.3879 25.0375C12.327 25.5549 12.2983 25.9943 12.2983 26.4199C12.2983 26.8456 12.327 27.285 12.3883 27.802C12.4302 28.1564 12.6475 28.4598 12.9577 28.5949L14.6147 29.3213C14.7271 29.6704 14.8581 30.0101 15.0066 30.3375L14.3166 32.0996C14.1876 32.4291 14.2349 32.807 14.4393 33.09C14.9689 33.8204 15.5846 34.4791 16.271 35.0479C16.5355 35.2672 16.8905 35.3168 17.199 35.179L18.8486 34.442C19.1551 34.6005 19.4727 34.7405 19.7999 34.8605L20.48 36.6306C20.6073 36.961 20.8905 37.1931 21.2223 37.2387C21.7062 37.3039 22.1176 37.3344 22.5161 37.3344C22.9147 37.3344 23.326 37.3039 23.81 37.2383C24.1417 37.1936 24.4258 36.9614 24.5523 36.6301L25.2323 34.8601C25.5603 34.7401 25.878 34.6001 26.1836 34.4415L27.8332 35.1786C28.1417 35.3163 28.4955 35.2667 28.7604 35.0475C29.4459 34.4809 30.0617 33.8222 30.5934 33.0896C30.7987 32.807 30.8451 32.4287 30.7161 32.0991L30.0261 30.337C30.1745 30.0097 30.3056 29.6704 30.418 29.3209L32.075 28.5945C32.3844 28.4585 32.6016 28.1559 32.6444 27.8016C32.7053 27.2851 32.7339 26.8457 32.7339 26.4199C32.7339 25.9942 32.7053 25.5548 32.6439 25.0379C32.6021 24.6835 32.3848 24.3801 32.0754 24.245L32.0753 24.2451ZM30.8558 26.9848L29.3091 27.6625C29.0453 27.7785 28.8454 28.0169 28.7675 28.3105C28.6273 28.8403 28.4333 29.3435 28.1898 29.8068C28.0505 30.0726 28.0339 30.3924 28.1434 30.6741L28.7845 32.313C28.5494 32.5978 28.2985 32.8658 28.0323 33.1165L26.4979 32.4317C26.2342 32.3135 25.9352 32.3325 25.6852 32.4813C25.2531 32.7405 24.7824 32.9478 24.2852 33.0975C24.0111 33.1808 23.7871 33.3943 23.6785 33.676L23.044 35.3282C22.6725 35.357 22.3594 35.357 21.987 35.3282L21.3525 33.676C21.2439 33.3943 21.0208 33.1808 20.7458 33.0975C20.2499 32.9478 19.7788 32.7405 19.3451 32.4805C19.0963 32.3316 18.7969 32.3139 18.5331 32.4308L16.9988 33.1165C16.7322 32.8654 16.4805 32.5974 16.2466 32.313L16.8877 30.6741C16.9984 30.3924 16.9814 30.073 16.8413 29.8068C16.5978 29.3435 16.4038 28.8394 16.2636 28.3105C16.1856 28.0177 15.9858 27.7785 15.722 27.6625L14.1753 26.9848C14.1629 26.7863 14.1562 26.6007 14.1562 26.42C14.1562 26.2393 14.1629 26.0537 14.1765 25.8552L15.7233 25.1775C15.987 25.0614 16.1869 24.8231 16.2648 24.5294C16.405 23.9997 16.5991 23.4965 16.8425 23.0332C16.9818 22.7674 16.9984 22.4476 16.8889 22.1659L16.247 20.5269C16.4821 20.2421 16.733 19.9733 16.9992 19.7234L18.5336 20.4082C18.7965 20.5265 19.0963 20.5075 19.3455 20.3586C19.7793 20.0986 20.2512 19.8913 20.7463 19.7416C21.0204 19.6583 21.2443 19.4448 21.3529 19.1631L21.9874 17.5109C22.359 17.4821 22.672 17.4821 23.0444 17.5109L23.6789 19.1631C23.7875 19.4448 24.0106 19.6583 24.2856 19.7416C24.7815 19.8913 25.2526 20.0986 25.6863 20.3586C25.9352 20.5075 26.2354 20.5252 26.4983 20.4082L28.0326 19.7234C28.2992 19.9746 28.5509 20.2426 28.7848 20.5269L28.1437 22.1659C28.033 22.4476 28.0508 22.767 28.1902 23.0341C28.4328 23.4956 28.6268 23.9984 28.767 24.5295C28.8449 24.8223 29.0448 25.0615 29.3086 25.1776L30.8553 25.8553C30.8694 26.0538 30.876 26.2393 30.876 26.4201C30.876 26.6008 30.8694 26.7864 30.8557 26.9849L30.8558 26.9848Z" fill="#109CDD"/>
<path d="M44.5507 29.8219L45.4555 29.2642L44.5266 27.5456L43.6226 28.1032C43.4999 27.9562 43.3717 27.8184 43.2332 27.6873L43.7553 26.7217L42.1464 25.7294L41.6243 26.696C41.4489 26.6335 41.2768 26.5609 41.0931 26.5206L41.0935 25.4282H39.2357V26.5206C39.0516 26.5604 38.8799 26.6326 38.7045 26.696L38.1824 25.7294L36.5735 26.7217L37.0956 27.6873C36.9579 27.8184 36.8289 27.9553 36.7062 28.1032L35.8022 27.5456L34.8733 29.2642L35.7781 29.8219C35.7197 30.0093 35.6517 30.1931 35.6139 30.3893H34.5913V32.3738H35.6139C35.6512 32.5704 35.7188 32.7538 35.7781 32.9412L34.8733 33.4989L35.8022 35.2175L36.7062 34.6598C36.8289 34.8069 36.9571 34.9446 37.0956 35.0758L36.5735 36.0414L38.1824 37.0336L38.7045 36.0671C38.8799 36.1296 39.052 36.2022 39.2357 36.2425V37.3349H41.0935V36.2425C41.2776 36.2027 41.4493 36.1305 41.6247 36.0671L42.1468 37.0336L43.7557 36.0414L43.2337 35.0758C43.3713 34.9447 43.5003 34.8078 43.623 34.6598L44.5271 35.2175L45.4559 33.4989L44.5511 32.9412C44.6096 32.7538 44.6776 32.57 44.7153 32.3738H45.7379V30.3893H44.7153C44.678 30.1926 44.6104 30.0093 44.5507 29.8219ZM42.9513 31.3815C42.9513 33.0227 41.7011 34.3582 40.1646 34.3582C38.6282 34.3582 37.378 33.0227 37.378 31.3815C37.378 29.7404 38.6282 28.4049 40.1646 28.4049C41.7011 28.4049 42.9513 29.7404 42.9513 31.3815Z" fill="#109CDD"/>
<path d="M22.5155 21.459C19.9545 21.459 17.8711 23.6844 17.8711 26.4201C17.8711 29.1558 19.9545 31.3812 22.5155 31.3812C25.0766 31.3812 27.16 29.1558 27.16 26.4201C27.16 23.6844 25.0766 21.459 22.5155 21.459ZM22.5155 29.3968C20.9791 29.3968 19.7289 28.0613 19.7289 26.4201C19.7289 24.7789 20.9791 23.4434 22.5155 23.4434C24.052 23.4434 25.3022 24.7789 25.3022 26.4201C25.3022 28.0613 24.052 29.3968 22.5155 29.3968Z" fill="#109CDD"/>
<path d="M10.4399 46.2646H13.2266V48.2491H10.4399V46.2646Z" fill="#333333"/>
<path d="M25.3023 45.2722H23.4446V50.2333H19.729V52.2178H24.3735C24.886 52.2178 25.3023 51.773 25.3023 51.2255V45.2722Z" fill="#333333"/>
<path d="M15.0845 50.2334H17.8711V52.2178H15.0845V50.2334Z" fill="#333333"/>
<path d="M10.4399 50.2334H13.2266V52.2178H10.4399V50.2334Z" fill="#333333"/>
<path d="M16.0132 54.2021H23.4443V56.1866H16.0132V54.2021Z" fill="#333333"/>
<path d="M12.2979 58.1709H14.1556V60.1553H12.2979V58.1709Z" fill="#333333"/>
<path d="M16.0132 58.1709H17.871V60.1553H16.0132V58.1709Z" fill="#333333"/>
<path d="M19.729 58.1709H21.5868V60.1553H19.729V58.1709Z" fill="#333333"/>
<path d="M30.8754 58.171H23.4443V60.1555H31.8043C32.3169 60.1555 32.7332 59.7108 32.7332 59.1633V54.2021H30.8754V58.171Z" fill="#333333"/>
<path d="M30.8755 47.2566H32.7333V52.2177H30.8755V47.2566Z" fill="#333333"/>
<path d="M3.00883 44.2798C1.4724 44.2798 0.222168 45.6153 0.222168 47.2565C0.222168 48.8977 1.4724 50.2331 3.00883 50.2331C4.21809 50.2331 5.23986 49.4008 5.62469 48.2487H8.58216V46.2642H5.62469C5.23986 45.1121 4.21809 44.2798 3.00883 44.2798ZM3.00883 48.2487C2.49712 48.2487 2.07994 47.8031 2.07994 47.2565C2.07994 46.7099 2.49712 46.2642 3.00883 46.2642C3.52055 46.2642 3.93772 46.7099 3.93772 47.2565C3.93772 47.8031 3.52055 48.2487 3.00883 48.2487Z" fill="#333333"/>
<path d="M42.022 50.2334H44.8086V52.2178H42.022V50.2334Z" fill="#333333"/>
<path d="M46.6665 50.2334H49.4532V52.2178H46.6665V50.2334Z" fill="#333333"/>
<path d="M53.1687 44.2798C51.9595 44.2798 50.9377 45.1121 50.5529 46.2642H46.6665V48.2487H50.5529C50.9373 49.4008 51.959 50.2331 53.1687 50.2331C54.7052 50.2331 55.9554 48.8977 55.9554 47.2565C55.9554 45.6153 54.7052 44.2798 53.1687 44.2798ZM53.1687 48.2487C52.657 48.2487 52.2398 47.8031 52.2398 47.2565C52.2398 46.7099 52.657 46.2642 53.1687 46.2642C53.6804 46.2642 54.0976 46.7099 54.0976 47.2565C54.0976 47.8031 53.6804 48.2487 53.1687 48.2487Z" fill="#333333"/>
<path d="M5.79545 52.2178C4.25902 52.2178 3.00879 53.5532 3.00879 55.1944C3.00879 56.8356 4.25902 58.1711 5.79545 58.1711C7.00471 58.1711 8.02648 57.3388 8.41131 56.1867H14.1554V54.2022H8.41131C8.02648 53.0501 7.00471 52.2178 5.79545 52.2178ZM5.79545 56.1867C5.28374 56.1867 4.86657 55.741 4.86657 55.1944C4.86657 54.6478 5.28374 54.2022 5.79545 54.2022C6.30717 54.2022 6.72434 54.6478 6.72434 55.1944C6.72434 55.741 6.30717 56.1867 5.79545 56.1867Z" fill="#333333"/>
</svg>
