<svg width="58" height="58" viewBox="0 0 58 58" fill="none" xmlns="http://www.w3.org/2000/svg">
<path d="M20.9572 28.8688V23.3588C20.9572 22.8078 20.5899 22.4404 20.0389 22.4404H16.3656C13.7943 22.4404 11.7739 24.4608 11.7739 27.0321V28.8688C11.7739 31.4401 13.7943 33.4604 16.3656 33.4604C18.9369 33.4604 20.9572 31.4401 20.9572 28.8688ZM19.1206 28.8688C19.1206 30.4299 17.9268 31.6238 16.3656 31.6238C14.8044 31.6238 13.6106 30.4299 13.6106 28.8688V27.0321C13.6106 25.4709 14.8044 24.2771 16.3656 24.2771H19.1206V28.8688Z" fill="#333333"/>
<path d="M15.4473 39.8888V49.0721C15.4473 49.6231 15.8146 49.9905 16.3656 49.9905C16.9166 49.9905 17.2839 49.6231 17.2839 49.0721V39.8888C17.2839 39.3378 16.9166 38.9705 16.3656 38.9705C15.8146 38.9705 15.4473 39.3378 15.4473 39.8888Z" fill="#333333"/>
<path d="M37.4873 28.8688C37.4873 31.4401 39.5076 33.4604 42.079 33.4604C44.6503 33.4604 46.6706 31.4401 46.6706 28.8688V23.3588C46.6706 22.8078 46.3033 22.4404 45.7523 22.4404H42.079C39.5076 22.4404 37.4873 24.4608 37.4873 27.0321V28.8688ZM39.324 27.0321C39.324 25.4709 40.5178 24.2771 42.079 24.2771H44.834V28.8688C44.834 30.4299 43.6401 31.6238 42.079 31.6238C40.5178 31.6238 39.324 30.4299 39.324 28.8688V27.0321Z" fill="#333333"/>
<path d="M41.1606 39.889V49.0724C41.1606 49.6234 41.528 49.9907 42.079 49.9907C42.63 49.9907 42.9973 49.6234 42.9973 49.0724V39.889C42.9973 39.338 42.63 38.9707 42.079 38.9707C41.528 38.9707 41.1606 39.338 41.1606 39.889Z" fill="#333333"/>
<path d="M45.6599 35.2974C45.1089 35.2974 44.7416 35.6647 44.7416 36.2157C44.7416 36.7667 45.1089 37.134 45.6599 37.134C47.2211 37.134 48.5067 38.4197 48.5067 39.9809V50.8172C48.5067 51.46 48.0476 51.9192 47.4047 51.9192H39.3234V43.4705C39.3234 41.1747 38.1296 39.1544 36.2929 38.0524C36.8439 37.5014 37.5786 37.134 38.4051 37.134C38.9561 37.134 39.3234 36.7667 39.3234 36.2157C39.3234 35.6647 38.9561 35.2974 38.4051 35.2974C36.8439 35.2974 35.4664 36.032 34.5481 37.3177C33.9971 37.2259 33.5379 37.134 32.9869 37.134C32.4359 37.134 32.0686 37.5014 32.0686 38.0524C32.0686 38.6034 32.4359 38.9707 32.9869 38.9707C35.4664 38.9707 37.4867 40.991 37.4867 43.4705V54.6742C37.4867 55.0415 37.0276 55.5007 36.6602 55.5007H27.5687C27.0177 55.5007 26.6504 55.868 26.6504 56.419C26.6504 56.97 27.0177 57.3374 27.5687 57.3374H36.6602C38.0377 57.3374 39.3234 56.0517 39.3234 54.6742V53.7559H47.4047C49.0577 53.7559 50.3434 52.4702 50.3434 50.8172V39.9809C50.3434 37.3177 48.3231 35.2974 45.6599 35.2974Z" fill="#333333"/>
<path d="M25.4566 37.1338C24.9056 37.1338 24.3546 37.2257 23.8954 37.3175C23.0689 36.1237 21.5996 35.2972 20.0384 35.2972C19.4874 35.2972 19.1201 35.6645 19.1201 36.2155C19.1201 36.7665 19.4874 37.1338 20.0384 37.1338C20.8649 37.1338 21.5996 37.5012 22.1506 38.0522C20.3139 39.1542 19.1201 41.1745 19.1201 43.4703V51.8272H10.6714C10.3041 51.8272 9.93676 51.4598 9.93676 51.0925V39.9801C9.93676 38.419 11.2224 37.1333 12.7836 37.1333C13.3346 37.1333 13.7019 36.766 13.7019 36.215C13.7019 35.664 13.3346 35.2966 12.7836 35.2966C10.1204 35.2966 8.1001 37.317 8.1001 39.9801V51.0925C8.1001 52.47 9.29393 53.6638 10.6714 53.6638H19.1201V54.674C19.1201 56.0515 20.4058 57.3372 21.7833 57.3372H23.7118C24.2628 57.3372 24.6301 56.9698 24.6301 56.4188C24.6301 55.8678 24.2628 55.5005 23.7118 55.5005H21.7833C21.4159 55.5005 20.9568 55.0413 20.9568 54.674V43.4703C20.9568 40.9908 22.9771 38.9705 25.4566 38.9705C26.0076 38.9705 26.3749 38.6032 26.3749 38.0522C26.3749 37.5012 26.0076 37.1338 25.4566 37.1338Z" fill="#333333"/>
<path d="M22.7939 28.8688C22.7939 32.4503 25.6408 35.2971 29.2223 35.2971C32.8038 35.2971 35.6506 32.4503 35.6506 28.8688V23.3588C35.6506 22.8078 35.2833 22.4404 34.7323 22.4404H29.2223C25.6408 22.4404 22.7939 25.2873 22.7939 28.8688ZM29.2223 24.2771H33.814V28.8688C33.814 31.4401 31.7936 33.4604 29.2223 33.4604C26.6509 33.4604 24.6306 31.4401 24.6306 28.8688C24.6306 26.2974 26.6509 24.2771 29.2223 24.2771Z" fill="#333333"/>
<path d="M28.3037 41.7255V52.7455C28.3037 53.2965 28.671 53.6638 29.222 53.6638C29.773 53.6638 30.1404 53.2965 30.1404 52.7455V41.7255C30.1404 41.1745 29.773 40.8071 29.222 40.8071C28.671 40.8071 28.3037 41.1745 28.3037 41.7255Z" fill="#333333"/>
<path d="M57.1396 24.3684L53.1908 22.4399C52.548 20.1441 51.7215 18.3074 50.8031 16.6544L52.1806 12.3382C52.2725 11.9709 52.1806 11.6036 51.997 11.4199L46.7625 6.1854C46.487 5.9099 46.1196 5.81807 45.8441 6.00173L41.528 7.47107C39.6913 6.36907 37.7628 5.54257 35.7425 4.99157L33.7221 0.950902C33.5385 0.583569 33.263 0.399902 32.8956 0.399902H25.549C25.1816 0.399902 24.9061 0.583569 24.7225 0.950902L22.7021 4.99157C21.6001 5.26707 20.59 5.6344 19.6716 6.00173C19.2125 6.1854 18.937 6.7364 19.2125 7.19557C19.3961 7.65473 19.9471 7.93023 20.4063 7.65473C21.4165 7.2874 22.4266 6.92007 23.6205 6.55273C23.896 6.4609 24.0796 6.27723 24.1715 6.09357L26.1 2.23657H32.3446L34.2731 6.09357C34.365 6.36907 34.6405 6.55273 34.916 6.55273C37.0281 7.10373 39.0485 7.93023 40.977 9.12407C41.2525 9.30773 41.528 9.30773 41.7116 9.2159L45.8441 7.8384L50.344 12.3382L48.9665 16.4707C48.8746 16.7462 48.8746 17.0217 49.0583 17.2054C50.1603 18.9502 50.895 20.8787 51.6296 23.2664C51.7215 23.5419 51.9051 23.7256 52.0888 23.8174L55.854 25.6541V31.8987L51.997 33.8272C51.7215 33.9191 51.6296 34.1946 51.5378 34.3782C51.3541 35.0211 51.1705 35.5721 50.9868 36.2149C50.8031 36.6741 51.0786 37.2251 51.5378 37.4087C52.1806 37.5924 52.548 37.2251 52.7316 36.8577C52.9153 36.3986 53.099 35.8476 53.1908 35.2966L57.2315 33.2762C57.507 33.0926 57.7825 32.8171 57.7825 32.4497V25.1031C57.6906 24.8276 57.507 24.5521 57.1396 24.3684Z" fill="#109CDD"/>
<path d="M6.99857 34.5625C6.90674 34.287 6.72307 34.1033 6.53941 33.9197L2.59057 31.9912V25.7465L6.44757 23.818C6.72307 23.7262 6.90674 23.4507 6.90674 23.1752C7.45774 21.063 8.28424 19.0427 9.47807 17.1142C9.66174 16.8387 9.66174 16.5632 9.56991 16.3795L8.19241 12.247L12.5086 7.93083L16.6411 9.30833C17.1002 9.492 17.6512 9.2165 17.8349 8.75733C18.0186 8.29817 17.7431 7.74717 17.2839 7.5635L12.6004 6.00234C12.2331 5.9105 11.8657 6.00234 11.6821 6.186L6.53941 11.3287C6.26391 11.6042 6.17207 11.9715 6.35574 12.247L7.82507 16.5632C6.72307 18.3998 5.89657 20.3283 5.34557 22.3487L1.30491 24.369C0.937573 24.5527 0.753906 24.8282 0.753906 25.1955V32.5422C0.753906 32.9095 0.937573 33.185 1.30491 33.3687L5.34557 35.389C5.52924 36.0318 5.71291 36.5828 5.89657 37.2257C5.98841 37.593 6.44757 37.9603 7.09041 37.7767C7.54957 37.593 7.82507 37.042 7.64141 36.5828C7.36591 35.94 7.09041 35.2053 6.99857 34.5625Z" fill="#109CDD"/>
<path d="M46.7617 20.7872C46.9454 21.1546 47.4964 21.5219 47.9555 21.2464C48.4147 20.9709 48.5984 20.5117 48.4147 20.0526C46.3944 15.7364 42.9966 12.1549 38.7722 10.0428C38.3131 9.85909 37.7621 10.0428 37.5784 10.4101C37.3947 10.7774 37.5784 11.4203 37.9457 11.6039C41.8027 13.6243 44.9251 16.8384 46.7617 20.7872Z" fill="#109CDD"/>
<path d="M32.7117 9.95107C32.8035 9.95107 33.4464 10.2266 33.8137 9.21641C33.9974 8.75724 33.63 8.20624 33.079 8.1144C31.977 7.8389 30.6914 7.74707 29.222 7.74707C28.671 7.74707 28.3037 8.1144 28.3037 8.6654C28.3037 9.21641 28.671 9.58374 29.222 9.58374C30.5995 9.58374 31.7015 9.67557 32.7117 9.95107Z" fill="#109CDD"/>
<path d="M14.1618 15.2775C13.7945 14.9102 13.1516 15.002 12.8761 15.3694C10.9476 17.757 9.57013 20.3284 8.83547 23.0834C8.74363 23.5425 9.01913 24.0935 9.4783 24.1854C10.1211 24.2772 10.4885 23.9099 10.5803 23.5425C11.2231 21.063 12.5088 18.6754 14.2536 16.5632C14.621 16.1959 14.621 15.6449 14.1618 15.2775Z" fill="#109CDD"/>
<path d="M30.1404 38.0524C30.1404 38.5595 29.7292 38.9707 29.222 38.9707C28.7149 38.9707 28.3037 38.5595 28.3037 38.0524C28.3037 37.5452 28.7149 37.134 29.222 37.134C29.7292 37.134 30.1404 37.5452 30.1404 38.0524Z" fill="#333333"/>
<path d="M42.9973 36.2157C42.9973 36.7228 42.5861 37.134 42.079 37.134C41.5719 37.134 41.1606 36.7228 41.1606 36.2157C41.1606 35.7086 41.5719 35.2974 42.079 35.2974C42.5861 35.2974 42.9973 35.7086 42.9973 36.2157Z" fill="#333333"/>
<path d="M17.2839 36.2157C17.2839 36.7228 16.8727 37.134 16.3656 37.134C15.8585 37.134 15.4473 36.7228 15.4473 36.2157C15.4473 35.7086 15.8585 35.2974 16.3656 35.2974C16.8727 35.2974 17.2839 35.7086 17.2839 36.2157Z" fill="#333333"/>
</svg>
