<svg width="12" height="20" viewBox="0 0 12 20" fill="none" xmlns="http://www.w3.org/2000/svg">
<path d="M0.393085 19.6084C0.516797 19.7325 0.6638 19.831 0.825664 19.8983C0.987529 19.9655 1.16107 20.0001 1.33634 20.0001C1.5116 20.0001 1.68514 19.9655 1.84701 19.8983C2.00887 19.831 2.15587 19.7325 2.27959 19.6084L11.1366 10.7515C11.2354 10.6529 11.3138 10.5358 11.3673 10.4068C11.4208 10.2779 11.4483 10.1397 11.4483 10.0001C11.4483 9.86049 11.4208 9.72227 11.3673 9.59333C11.3138 9.4644 11.2354 9.34728 11.1366 9.24869L2.27949 0.391686C2.15577 0.267536 2.00877 0.169028 1.84691 0.101814C1.68504 0.0345994 1.5115 0 1.33624 0C1.16097 0 0.987429 0.0345994 0.825564 0.101814C0.6637 0.169028 0.516697 0.267536 0.392985 0.391686C0.26882 0.515399 0.1703 0.662409 0.103076 0.824283C0.0358529 0.986156 0.00124885 1.15971 0.00124885 1.33499C0.00124885 1.51026 0.0358529 1.68382 0.103076 1.84569C0.1703 2.00756 0.26882 2.15457 0.392985 2.27829L8.10948 10.0054L0.382385 17.7326C-0.129215 18.2442 -0.129215 19.0968 0.392985 19.6084H0.393085Z" fill="#384250"/>
</svg>
