<svg width="12" height="20" viewBox="0 0 12 20" fill="none" xmlns="http://www.w3.org/2000/svg">
<path d="M11.0552 19.6084C10.9314 19.7325 10.7844 19.831 10.6226 19.8983C10.4607 19.9655 10.2872 20.0001 10.1119 20.0001C9.93664 20.0001 9.7631 19.9655 9.60124 19.8983C9.43937 19.831 9.29237 19.7325 9.16866 19.6084L0.311657 10.7515C0.212833 10.6529 0.13443 10.5358 0.0809345 10.4068C0.0274391 10.2779 -9.72748e-05 10.1397 -9.72748e-05 10.0001C-9.72748e-05 9.86049 0.0274391 9.72227 0.0809345 9.59333C0.13443 9.4644 0.212833 9.34728 0.311657 9.24869L9.16876 0.391686C9.29247 0.267536 9.43947 0.169028 9.60134 0.101814C9.7632 0.0345994 9.93674 0 10.112 0C10.2873 0 10.4608 0.0345994 10.6227 0.101814C10.7845 0.169028 10.9315 0.267536 11.0553 0.391686C11.1794 0.515399 11.2779 0.662409 11.3452 0.824283C11.4124 0.986156 11.447 1.15971 11.447 1.33499C11.447 1.51026 11.4124 1.68382 11.3452 1.84569C11.2779 2.00756 11.1794 2.15457 11.0553 2.27829L3.33876 10.0054L11.0659 17.7326C11.5775 18.2442 11.5775 19.0968 11.0553 19.6084H11.0552Z" fill="#384250"/>
</svg>
