<svg width="63" height="82" viewBox="0 0 63 82" fill="none" xmlns="http://www.w3.org/2000/svg">
<path d="M54.6582 67.8253C53.6651 67.7353 52.6721 67.8253 51.769 68.0961C50.866 65.7491 48.5191 64.1238 45.9014 64.1238H41.3876V58.707H54.0266C57.9989 58.707 61.2488 55.457 61.2488 51.4847V42.6378C61.2488 40.2002 60.075 37.9433 57.9989 36.5894L50.4152 31.6247V27.6524C50.4152 16.3679 41.1168 5.17368 32.3601 0.298788C31.8185 0.0280083 31.1863 0.0280083 30.6447 0.298788C21.8879 5.17336 12.5895 16.4582 12.5895 27.6524V31.6247L5.00646 36.68C3.02039 38.0338 1.75653 40.2907 1.75653 42.7284V51.5753C1.75653 55.5476 5.00646 58.7975 8.97876 58.7975H21.6177V64.2144H17.1039C14.4862 64.2144 12.2293 65.8391 11.2363 68.1867C9.88242 67.7352 8.34715 67.7352 6.90322 68.0967C3.38246 68.9997 0.854736 72.2497 0.854736 76.2212C0.854736 79.1103 3.20175 81.4572 6.00078 81.4572H57.0067C59.8958 81.4572 62.1527 79.1102 62.1527 76.3111C62.1508 71.7973 58.8109 68.186 54.6585 67.825L54.6582 67.8253ZM56.0121 39.7495C57.0051 40.3818 57.6367 41.5549 57.6367 42.7287V51.5755C57.6367 53.5616 56.0121 55.1862 54.026 55.1862H50.4153V35.9575L56.0121 39.7495ZM5.27703 51.5755V42.7287C5.27703 41.5549 5.90927 40.3816 6.90167 39.7495L12.4986 36.0481V55.1866H8.88791C6.90184 55.1866 5.27719 53.5613 5.27719 51.5752L5.27703 51.5755ZM16.11 32.6176V27.743C16.11 18.1733 23.8737 8.60454 31.4567 3.99886C39.0397 8.60276 46.8035 18.1725 46.8035 27.7414V55.1853H33.2621V44.3517C33.2621 43.3586 32.4497 42.5463 31.4567 42.5463C30.4637 42.5463 29.6514 43.3587 29.6514 44.3517V55.1846L16.11 55.1853V32.6176ZM57.005 77.7555H5.9088C5.00578 77.7555 4.37419 77.0332 4.37419 76.1309C4.37419 74.0547 5.72807 72.1586 7.71424 71.6171C9.06812 71.2563 10.4227 71.527 11.5058 72.2493C12.0474 72.6102 12.7697 72.7008 13.4019 72.3394C14.0342 72.0686 14.395 71.4364 14.395 70.7147V70.5334C14.395 68.9988 15.5688 67.8249 17.1034 67.8249H21.6172V72.3387C21.6172 73.3318 22.4296 74.1441 23.4226 74.1441C24.4156 74.1441 25.228 73.3318 25.228 72.3387V58.7974H37.8663V72.3387C37.8663 73.3318 38.6786 74.1441 39.6716 74.1441C40.6647 74.1441 41.477 73.3318 41.477 72.3387V67.8249H45.9908C47.5254 67.8249 48.6992 68.9987 48.6992 70.5334V70.8042C48.6992 71.4364 49.06 72.068 49.6923 72.4288C50.3245 72.6996 51.0462 72.6996 51.5884 72.3388C52.4914 71.7065 53.4845 71.4357 54.4775 71.5264C56.8245 71.7071 58.6305 73.7833 58.6305 76.311C58.5399 77.0333 57.8176 77.7556 57.0053 77.7556L57.005 77.7555ZM31.4569 30.8121C35.4292 30.8121 38.6791 27.5621 38.6791 23.5898C38.6791 19.6175 35.4292 16.3676 31.4569 16.3676C27.4846 16.3676 24.2346 19.6175 24.2346 23.5898C24.2346 27.5621 27.4846 30.8121 31.4569 30.8121ZM31.4569 19.9791C33.4429 19.9791 35.0676 21.6038 35.0676 23.5898C35.0676 25.5759 33.4429 27.2006 31.4569 27.2006C29.4708 27.2006 27.8462 25.5759 27.8462 23.5898C27.8462 21.6044 29.4708 19.9791 31.4569 19.9791Z" fill="#FFBC00"/>
</svg>
