<svg width="55" height="50" viewBox="0 0 55 50" fill="none" xmlns="http://www.w3.org/2000/svg">
<path d="M51.2077 0.363281H2.96917C1.36473 0.363281 0.0664062 1.6616 0.0664062 3.26605V38.5001C0.0664062 40.1046 1.36473 41.4029 2.96917 41.4029H19.9633L19.0871 48.0529H17.356C16.9232 48.0529 16.5643 48.4118 16.5643 48.8445C16.5643 49.2773 16.9232 49.6362 17.356 49.6362H36.8313C37.2641 49.6362 37.623 49.2773 37.623 48.8445C37.623 48.4118 37.2641 48.0529 36.8313 48.0529H35.1001L34.2768 41.7935C34.2768 41.7618 34.2662 41.7196 34.2557 41.6879L34.2135 41.3923H51.2076C52.812 41.3923 54.1103 40.094 54.1103 38.4896V3.26611C54.1103 1.66167 52.812 0.363349 51.2076 0.363349L51.2077 0.363281ZM20.6813 48.0536L21.5574 41.4037H23.1407C23.5101 43.2614 25.1251 44.6337 27.0884 44.6337C29.0202 44.6337 30.6563 43.2403 31.0362 41.4037H32.6195L32.8201 42.9448C32.8201 42.9765 32.8306 43.0081 32.8412 43.0398L33.4956 48.0537L20.6813 48.0536ZM24.7769 41.4037H29.4002C29.0624 42.3537 28.144 43.0503 27.0885 43.0503C26.0119 43.0503 25.1041 42.3642 24.7769 41.4037V41.4037ZM52.5277 38.5009C52.5277 39.2292 51.9366 39.8203 51.2083 39.8203H2.96975C2.24142 39.8203 1.65029 39.2292 1.65029 38.5009V34.3736H52.5283L52.5277 38.5009ZM52.5277 32.7798H1.64972V3.26672C1.64972 2.53839 2.24083 1.94727 2.96917 1.94727H51.2077C51.936 1.94727 52.5272 2.53838 52.5272 3.26672L52.5277 32.7798Z" fill="#2E2E2E"/>
<path d="M47.2807 7.1084H45.6446C45.2646 7.1084 44.9373 7.37229 44.8635 7.74173L44.4201 9.96894L27.9327 11.1934C27.7005 11.2145 27.4788 11.3307 27.3416 11.5312C27.2044 11.7212 27.1621 11.9745 27.2255 12.1962L29.1994 19.2684C29.2944 19.6062 29.611 19.849 29.9594 19.849H42.4465L42.2882 20.6723H28.8089C27.6162 20.6723 26.645 21.6433 26.645 22.8362C26.645 24.029 27.6161 25.0001 28.8089 25.0001H29.495C29.3684 25.3062 29.2945 25.644 29.2945 26.0029C29.2945 27.4279 30.4556 28.589 31.8806 28.589C33.3056 28.589 34.4667 27.4279 34.4667 26.0029C34.4667 25.644 34.3928 25.3062 34.2662 25.0001H38.5201C38.3934 25.3062 38.3195 25.644 38.3195 26.0029C38.3195 27.4279 39.4806 28.589 40.9056 28.589C42.3307 28.589 43.4917 27.4279 43.4917 26.0029C43.4917 25.644 43.4179 25.3062 43.2912 25.0001H44.0723C44.5051 25.0001 44.864 24.6412 44.864 24.2084C44.864 23.7757 44.5051 23.4168 44.0723 23.4168H28.8086C28.4919 23.4168 28.2281 23.1529 28.2281 22.8362C28.2281 22.5195 28.4919 22.2557 28.8086 22.2557H42.9316C43.3116 22.2557 43.6388 21.9918 43.7127 21.6223L46.2988 8.69219H47.2805C47.7133 8.69219 48.0722 8.3333 48.0722 7.90053C48.0722 7.46776 47.7133 7.10886 47.2805 7.10886L47.2807 7.1084ZM40.9052 24.9894C41.454 24.9894 41.908 25.4433 41.908 25.9922C41.908 26.5411 41.4541 26.995 40.9052 26.995C40.3562 26.995 39.9023 26.5411 39.9023 25.9922C39.9023 25.4433 40.3562 24.9894 40.9052 24.9894ZM31.8801 24.9894C32.429 24.9894 32.8829 25.4433 32.8829 25.9922C32.8829 26.5411 32.429 26.995 31.8801 26.995C31.3312 26.995 30.8773 26.5411 30.8773 25.9922C30.8773 25.4433 31.3312 24.9894 31.8801 24.9894ZM42.7739 18.2655H30.5715L29.0198 12.7027L44.1146 11.5944L42.7739 18.2655Z" fill="#109CDD"/>
<path d="M32.5143 17.1567C32.9471 17.1567 33.306 16.7978 33.306 16.365V14.1484C33.306 13.7156 32.9471 13.3567 32.5143 13.3567C32.0816 13.3567 31.7227 13.7156 31.7227 14.1484V16.365C31.7227 16.8084 32.071 17.1567 32.5143 17.1567Z" fill="#109CDD"/>
<path d="M35.2057 17.1567C35.6385 17.1567 35.9974 16.7978 35.9974 16.365V14.1484C35.9974 13.7156 35.6385 13.3567 35.2057 13.3567C34.773 13.3567 34.4141 13.7156 34.4141 14.1484V16.365C34.4141 16.8084 34.7624 17.1567 35.2057 17.1567Z" fill="#109CDD"/>
<path d="M37.8976 17.1567C38.3304 17.1567 38.6893 16.7978 38.6893 16.365V14.1484C38.6893 13.7156 38.3304 13.3567 37.8976 13.3567C37.4649 13.3567 37.106 13.7156 37.106 14.1484V16.365C37.106 16.8084 37.4543 17.1567 37.8976 17.1567Z" fill="#109CDD"/>
<path d="M40.589 17.1567C41.0218 17.1567 41.3807 16.7978 41.3807 16.365V14.1484C41.3807 13.7156 41.0218 13.3567 40.589 13.3567C40.1563 13.3567 39.7974 13.7156 39.7974 14.1484V16.365C39.7974 16.8084 40.1457 17.1567 40.589 17.1567Z" fill="#109CDD"/>
<path d="M9.87239 9.2615L10.3157 8.83928V10.8448C10.3157 11.2776 10.6746 11.6365 11.1074 11.6365C11.5402 11.6365 11.8991 11.2776 11.8991 10.8448V8.83928L12.3424 9.2615C12.4902 9.40928 12.6907 9.47261 12.8807 9.47261C13.0918 9.47261 13.3029 9.38817 13.4613 9.21928C13.7568 8.90262 13.7463 8.39595 13.4296 8.10037L11.6458 6.422C11.3396 6.137 10.8646 6.137 10.5585 6.422L8.79569 8.10037C8.47903 8.39592 8.45791 8.90259 8.76402 9.21928C9.05958 9.53594 9.55569 9.55706 9.87232 9.2615H9.87239Z" fill="#109CDD"/>
<path d="M16.2797 9.2615L16.723 8.83928V10.8448C16.723 11.2776 17.0819 11.6365 17.5147 11.6365C17.9474 11.6365 18.3063 11.2776 18.3063 10.8448V8.83928L18.7497 9.2615C18.8974 9.40928 19.098 9.47261 19.288 9.47261C19.4991 9.47261 19.7102 9.38817 19.8686 9.21928C20.1641 8.90262 20.1536 8.39595 19.8369 8.10037L18.053 6.422C17.7469 6.137 17.2719 6.137 16.9658 6.422L15.1819 8.10037C14.8653 8.39592 14.8441 8.90259 15.1503 9.21928C15.4564 9.53597 15.963 9.55706 16.2797 9.2615H16.2797Z" fill="#109CDD"/>
<path d="M20.5444 14.0964H8.51083C7.4975 14.0964 6.66357 14.9303 6.66357 15.9437V19.1314C6.66357 20.1448 7.49746 20.9787 8.51083 20.9787H20.5444C21.5577 20.9787 22.3917 20.1448 22.3917 19.1314V15.9437C22.3917 14.9304 21.5578 14.0964 20.5444 14.0964ZM20.8083 19.1314C20.8083 19.2792 20.6922 19.3953 20.5444 19.3953H8.51083C8.36306 19.3953 8.24694 19.2792 8.24694 19.1314V15.9437C8.24694 15.7959 8.36305 15.6798 8.51083 15.6798H20.5444C20.6922 15.6798 20.8083 15.7959 20.8083 15.9437V19.1314Z" fill="#109CDD"/>
<path d="M7.45524 25.3057H12.8913C13.3241 25.3057 13.683 24.9468 13.683 24.5141C13.683 24.0813 13.3241 23.7224 12.8913 23.7224H7.45524C7.02246 23.7224 6.66357 24.0813 6.66357 24.5141C6.66357 24.9468 7.02247 25.3057 7.45524 25.3057Z" fill="#109CDD"/>
<path d="M21.5994 26.5305H7.45524C7.02246 26.5305 6.66357 26.8894 6.66357 27.3222C6.66357 27.7549 7.02247 28.1138 7.45524 28.1138H21.5994C22.0322 28.1138 22.3911 27.7549 22.3911 27.3222C22.3911 26.8894 22.0322 26.5305 21.5994 26.5305Z" fill="#109CDD"/>
</svg>
