<svg width="120" height="58" viewBox="0 0 120 58" fill="none" xmlns="http://www.w3.org/2000/svg">
<g clip-path="url(#clip0_7_787)">
<path fill-rule="evenodd" clip-rule="evenodd" d="M105.168 9.58494L105.897 10.5574L119.994 28.8697L105.169 48.1526C105.007 48.3959 104.764 48.6389 104.521 48.8818L104.521 48.8822C103.224 50.0971 101.522 50.7453 99.74 50.7453H0.00537109V6.99414H99.74C101.522 6.99414 103.224 7.64228 104.52 8.8556L104.536 8.87134C104.773 9.10922 105.01 9.34706 105.168 9.58494ZM87.5061 19.0658C81.9979 19.0666 77.4617 23.3602 77.4617 28.7073C77.4617 34.3788 81.8366 38.7534 87.5078 38.7534C93.0173 38.7534 97.5542 34.3782 97.5542 28.9504C97.5565 27.6409 97.2995 26.344 96.7982 25.1342C96.2973 23.9245 95.5617 22.8258 94.6341 21.9015C92.6903 20.0386 90.1792 19.0662 87.5061 19.0658ZM87.5061 19.0658C87.5068 19.0658 87.5071 19.0658 87.5078 19.0658H87.5044C87.5051 19.0658 87.5058 19.0658 87.5061 19.0658ZM92.204 33.4874C90.9078 34.7025 89.2059 35.3507 87.4228 35.3507C85.6399 35.3507 83.9391 34.7025 82.6419 33.4874C81.3446 32.2723 80.6164 30.6517 80.6164 28.8692C80.6164 27.006 81.3456 25.306 82.5605 24.0882C83.7758 22.8703 85.4776 22.2249 87.4221 22.2249C89.1786 22.2218 90.8771 22.855 92.203 24.0074C93.4992 25.2225 94.2281 26.8427 94.2281 28.6252C94.2281 30.5696 93.4992 32.271 92.203 33.4865L92.204 33.4874ZM14.1839 22.874H20.5843V38.2678H23.825V22.874H30.3065V19.5521H14.1839V22.874ZM48.212 31.0568C48.212 32.677 47.806 33.7305 46.9941 34.3788C46.2652 34.9458 45.1309 35.2701 43.4308 35.2701C41.3243 35.2701 39.8657 34.8648 39.0558 34.0545C38.2439 33.2426 38.1646 32.2719 38.1646 31.0568V19.5521H34.8435V31.0568C34.8435 32.5962 34.9245 33.9732 35.8968 35.5127C36.5447 36.485 38.4892 38.6728 42.9455 38.6728C44.809 38.6728 48.212 38.3485 50.0752 35.918C51.2904 34.2975 51.4527 32.9201 51.4527 31.1371V19.5521H48.212V31.0568ZM67.8182 19.5521C71.4642 19.5521 73.8137 22.1447 73.8137 25.5473C73.8137 28.2211 72.3558 30.4881 69.8444 31.2999L73.8137 38.2678H70.087L66.279 31.4619H60.1216V38.2678H56.7999V19.5521H67.8182ZM60.1216 28.1404H67.8182C70.087 28.1404 70.573 26.5198 70.573 25.3854C70.573 23.846 69.6007 22.7928 67.8182 22.7928H60.1216V28.1404Z" fill="black"/>
</g>
<defs>
<clipPath id="clip0_7_787">
<rect width="119.989" height="57.3281" fill="white" transform="translate(0.00537109 0.328125)"/>
</clipPath>
</defs>
</svg>
